<svg width="80" height="80" viewBox="0 0 80 80" fill="none" xmlns="http://www.w3.org/2000/svg">
<g clip-path="url(clip0)">
<path d="M75.2742 0H19.7524C19.105 0 18.5805 0.524687 18.5805 1.17188C18.5805 1.81906 19.105 2.34375 19.7524 2.34375H75.2742C75.7566 2.34375 76.1491 2.73625 76.1491 3.21859V22.5394H73.4928V6.17188C73.4928 5.52469 72.9683 5 72.321 5H7.67908C7.03173 5 6.5072 5.52469 6.5072 6.17188V57.7459C6.5072 58.3931 7.03173 58.9178 7.67908 58.9178H15.9674V61.5741H4.7258C4.24345 61.5741 3.85095 61.1816 3.85095 60.6992V3.21859C3.85095 2.73625 4.24345 2.34375 4.7258 2.34375H15.0649C15.7122 2.34375 16.2367 1.81906 16.2367 1.17188C16.2367 0.524687 15.7122 0 15.0649 0H4.7258C2.95111 0 1.5072 1.44391 1.5072 3.21859V60.6992C1.5072 62.4739 2.95095 63.9178 4.7258 63.9178H46.8269C47.3092 63.9178 47.7017 64.3103 47.7017 64.7927V76.7814C47.7017 78.5561 49.1455 80 50.9203 80H60.0483C60.6956 80 61.2202 79.4753 61.2202 78.8281C61.2202 78.1809 60.6956 77.6562 60.0483 77.6562H50.9203C50.438 77.6562 50.0455 77.2637 50.0455 76.7814V64.7927C50.0455 63.018 48.6017 61.5741 46.8269 61.5741H34.5999V58.9178H46.8269C50.0663 58.9178 52.7017 61.5533 52.7017 64.7927V73.8281C52.7017 74.4753 53.2263 75 53.8736 75H72.3208C72.9681 75 73.4927 74.4753 73.4927 73.8281V41.1719H76.1489V76.7814C76.1489 77.2637 75.7564 77.6562 75.2741 77.6562H63.1731C62.5258 77.6562 62.0013 78.1809 62.0013 78.8281C62.0013 79.4753 62.5258 80 63.1731 80H75.2741C77.0488 80 78.4927 78.5561 78.4927 76.7814V3.21859C78.4927 1.44391 77.0489 0 75.2742 0V0ZM71.1489 65.7688H66.3314C65.7714 65.7688 65.3158 65.3133 65.3158 64.7531V51.4089C65.3158 50.8489 65.7714 50.3933 66.3314 50.3933H71.1489V65.7688ZM65.8502 7.34375V8.66484C65.8502 9.79703 64.9291 10.718 63.7971 10.718H59.1392C58.0071 10.718 57.086 9.79688 57.086 8.66484V7.34375H65.8502ZM49.3961 7.65625V13.7625C49.3961 15.0642 48.3372 16.1233 47.0355 16.1233C45.7338 16.1233 44.6747 15.0642 44.6747 13.7625V7.65625H49.3961ZM15.7445 12.5437H27.8569V26.7778H15.7445V12.5437ZM27.8567 7.34375V10.2H15.7444V7.34375H27.8567ZM28.285 43.3216V50.7464H14.0511V43.3216H28.285ZM11.7074 50.7463H8.85111V43.3214H11.7074V50.7463ZM32.2561 61.5741H18.3111V58.9178H32.2561V61.5741ZM55.0455 72.6562V64.7927C55.0455 60.2609 51.3586 56.5741 46.8269 56.5741H43.5258V39.7902H57.8896V40.1922C57.8896 40.8394 58.4141 41.3641 59.0614 41.3641C59.7088 41.3641 60.2333 40.8394 60.2333 40.1922V36.8692C60.2333 36.222 59.7088 35.6973 59.0614 35.6973C58.4141 35.6973 57.8896 36.222 57.8896 36.8692V37.4464H42.3539C41.7067 37.4464 41.182 37.9711 41.182 38.6183V56.5741H8.85095V53.09H28.5364C29.6902 53.09 30.6288 52.1514 30.6288 50.9977V43.07C30.6288 41.9163 29.6902 40.9777 28.5364 40.9777H8.85095V38.0653H30.3163V38.3498C30.3163 38.997 30.8408 39.5217 31.4881 39.5217C32.1355 39.5217 32.66 38.997 32.66 38.3498V35.3881C32.66 34.7409 32.1355 34.2162 31.4881 34.2162C30.8408 34.2162 30.3163 34.7409 30.3163 35.3881V35.7217H8.85095V7.34375H13.4006V27.0292C13.4006 28.183 14.3392 29.1216 15.493 29.1216H28.1081C29.2619 29.1216 30.2005 28.183 30.2005 27.0292V7.34375H36.4702V26.7778H36.1856C35.5383 26.7778 35.0138 27.3025 35.0138 27.9497C35.0138 28.5969 35.5383 29.1216 36.1856 29.1216H39.1475C39.7947 29.1216 40.3194 28.5969 40.3194 27.9497C40.3194 27.3025 39.7947 26.7778 39.1475 26.7778H38.8139V7.34375H42.3308V13.7625C42.3308 16.3566 44.4413 18.467 47.0353 18.467C49.6294 18.467 51.7397 16.3566 51.7397 13.7625V7.34375H54.7424V8.66484C54.7424 11.0894 56.7149 13.0617 59.1394 13.0617H63.7972C66.2217 13.0617 68.1941 11.0892 68.1941 8.66484V7.34375H71.1491V48.0497H66.3316C64.4791 48.0497 62.9722 49.5567 62.9722 51.4091V64.7533C62.9722 66.6056 64.4791 68.1127 66.3316 68.1127H71.1491V72.6562H55.0455ZM73.4927 38.8281V24.8831H76.1489V38.8281H73.4927Z" fill="#A1BA45"/>
<path d="M66.0584 24.6473C66.0584 22.3429 64.1837 20.4683 61.8793 20.4683C59.5751 20.4683 57.7004 22.3429 57.7004 24.6473C57.7004 26.9515 59.5751 28.8262 61.8793 28.8262C64.1837 28.8262 66.0584 26.9515 66.0584 24.6473ZM61.8793 26.4825C60.8673 26.4825 60.0441 25.6592 60.0441 24.6473C60.0441 23.6353 60.8674 22.812 61.8793 22.812C62.8913 22.812 63.7146 23.6353 63.7146 24.6473C63.7146 25.6592 62.8913 26.4825 61.8793 26.4825Z" fill="#A1BA45"/>
</g>
<defs>
<clipPath id="clip0">
<rect width="80" height="80" fill="white"/>
</clipPath>
</defs>
</svg>
