<svg width="80" height="80" viewBox="0 0 80 80" fill="none" xmlns="http://www.w3.org/2000/svg">
<g clip-path="url(#clip0)">
<path d="M36.5948 63.2814C36.2531 62.9633 35.9715 62.5918 35.7583 62.1771L33.8125 58.3946C33.5154 57.8174 32.807 57.5904 32.2298 57.8873C31.6527 58.1842 31.4256 58.8927 31.7225 59.4698L33.6683 63.2523C34.0064 63.9095 34.4523 64.4982 34.9938 65.0021L42.6025 72.0799V78.8253C42.6025 79.4744 43.1285 80.0004 43.7776 80.0004C44.4268 80.0004 44.9528 79.4744 44.9528 78.8253V71.5682C44.9528 71.2418 44.8171 70.9302 44.578 70.7078L36.5948 63.2814Z" fill="#A1BA45"/>
<path d="M31.5118 53.9224L26.2937 43.7793C26.2904 43.7728 26.2869 43.7664 26.2835 43.76C25.851 42.9564 26.045 41.9478 26.7446 41.3618C27.4912 40.7365 28.5914 40.7655 29.304 41.4296L36.198 47.8535C36.5404 48.1723 37.0389 48.2579 37.4679 48.0713C37.8968 47.8848 38.1743 47.4615 38.1743 46.9938V31.9041C38.1743 31.255 37.6481 30.729 36.9992 30.729C36.3502 30.729 35.824 31.255 35.824 31.9041V44.2924L30.9062 39.7101C29.3277 38.2391 26.8898 38.1746 25.2357 39.56C23.6885 40.8557 23.2576 43.0842 24.2084 44.8632L29.422 54.9976C29.6305 55.4028 30.0417 55.6354 30.468 55.6354C30.649 55.6354 30.8326 55.5933 31.0046 55.5049C31.5814 55.208 31.8086 54.4995 31.5118 53.9224Z" fill="#A1BA45"/>
<path d="M64.4358 28.2249C62.8611 28.2249 61.4515 28.9432 60.5161 30.0689C59.5808 28.9432 58.171 28.2249 56.5965 28.2249C55.022 28.2249 53.6123 28.9432 52.6769 30.0689C51.7417 28.9432 50.3318 28.2249 48.7573 28.2249C47.7472 28.2249 46.8057 28.5217 46.0129 29.0308V19.6787C46.0129 16.8695 43.7273 14.584 40.918 14.584C38.1089 14.584 35.8235 16.8695 35.8235 19.6787V26.896C35.8235 27.5451 36.3496 28.0711 36.9986 28.0711C37.6476 28.0711 38.1737 27.5451 38.1737 26.896V19.6787C38.1737 18.1654 39.4049 16.9342 40.9182 16.9342C42.4314 16.9342 43.6626 18.1653 43.6626 19.6787V40.5509C43.6626 41.2 44.1886 41.726 44.8378 41.726C45.4869 41.726 46.0129 41.2 46.0129 40.5509V33.3196C46.0129 31.8064 47.2439 30.5752 48.7573 30.5752C50.2707 30.5752 51.5018 31.8062 51.5018 33.3196V40.5443C51.5018 41.1934 52.0278 41.7194 52.6769 41.7194C53.326 41.7194 53.852 41.1934 53.852 40.5443V33.3196C53.852 31.8064 55.0831 30.5752 56.5965 30.5752C58.1099 30.5752 59.3409 31.8062 59.3409 33.3196V40.5443C59.3409 41.1934 59.8669 41.7194 60.5161 41.7194C61.1652 41.7194 61.6912 41.1934 61.6912 40.5443V33.3196C61.6912 31.8064 62.9224 30.5752 64.4358 30.5752C65.9492 30.5752 67.1802 31.8062 67.1802 33.3196V64.8066C67.1802 65.405 67.0211 65.9949 66.7201 66.5121L64.8331 69.7548C64.7288 69.9343 64.6736 70.1382 64.6736 70.3458V78.6661C64.6736 79.3153 65.1996 79.8412 65.8488 79.8412C66.4979 79.8412 67.0239 79.3153 67.0239 78.6661V70.6629L68.7513 67.6941C69.261 66.8182 69.5303 65.8199 69.5303 64.8066V33.3196C69.5305 30.5105 67.2451 28.2249 64.4358 28.2249Z" fill="#A1BA45"/>
<path d="M50.6185 16.5315C50.6185 18.6939 49.9229 20.7425 48.6067 22.4562C48.2115 22.9709 48.3082 23.7085 48.8229 24.104C49.0363 24.2679 49.2881 24.3472 49.5378 24.3472C49.8905 24.3472 50.2394 24.1891 50.4707 23.8878C52.1051 21.76 52.9687 19.2163 52.9687 16.5317C52.9687 14.6758 52.5577 12.8932 51.7472 11.2336C51.4627 10.6503 50.759 10.4082 50.1757 10.6934C49.5925 10.9781 49.3506 11.6819 49.6354 12.2649C50.2877 13.6005 50.6185 15.036 50.6185 16.5315Z" fill="#A1BA45"/>
<path d="M31.3748 23.9983C31.6067 24.2931 31.9512 24.4468 32.2992 24.4468C32.5535 24.4468 32.8095 24.3647 33.025 24.1954C33.5351 23.7941 33.6234 23.0555 33.2221 22.5453C31.8602 20.8138 31.1404 18.7345 31.1404 16.5317C31.1404 11.1616 35.5093 6.79262 40.8795 6.79262C43.04 6.79262 45.0874 7.48735 46.8002 8.80145C47.3149 9.19645 48.0529 9.09915 48.4479 8.58445C48.8429 8.06959 48.7457 7.33193 48.2309 6.93677C46.1039 5.30476 43.5619 4.44238 40.8795 4.44238C34.2134 4.44238 28.7902 9.86564 28.7902 16.5317C28.7902 19.2666 29.6839 21.8484 31.3748 23.9983Z" fill="#A1BA45"/>
<path d="M29.2838 32.8447C29.4904 32.9918 29.7284 33.0628 29.9644 33.0628C30.3317 33.0628 30.6934 32.8909 30.9227 32.5691C31.2992 32.0404 31.1757 31.3067 30.6471 30.9303C25.9944 27.6174 23.2167 22.2349 23.2167 16.5317C23.2167 10.8286 25.9945 5.44574 30.6471 2.133C31.1759 1.75664 31.2992 1.0229 30.9227 0.494094C30.5463 -0.0345532 29.8126 -0.158019 29.2839 0.218489C24.0131 3.97135 20.8665 10.0698 20.8665 16.5317C20.8663 22.9936 24.013 29.092 29.2838 32.8447Z" fill="#A1BA45"/>
<path d="M51.1118 2.13251C55.7645 5.44541 58.5423 10.8281 58.5423 16.5312C58.5423 18.8084 58.1154 21.0247 57.2735 23.118C57.0313 23.7203 57.323 24.4046 57.9252 24.6467C58.069 24.7045 58.2172 24.732 58.3634 24.732C58.8289 24.732 59.2697 24.4534 59.4539 23.9951C60.4086 21.6216 60.8926 19.1103 60.8926 16.5312C60.8926 10.0693 57.7459 3.97087 52.4751 0.218001C51.946 -0.158507 51.2124 -0.0350415 50.8362 0.493606C50.4599 1.02241 50.5832 1.75616 51.1118 2.13251Z" fill="#A1BA45"/>
<path d="M13.9081 9.16277C14.1397 9.41143 14.4535 9.53724 14.7684 9.53724C15.0552 9.53724 15.3425 9.43289 15.5689 9.22215C16.044 8.77999 16.0706 8.03638 15.6283 7.56132L13.0727 4.81624C12.6302 4.34117 11.8867 4.31485 11.4118 4.75685C10.9368 5.19901 10.9101 5.94263 11.3524 6.41769L13.9081 9.16277Z" fill="#A1BA45"/>
<path d="M13.9082 20.8127L11.3525 23.5576C10.9104 24.0325 10.9368 24.7761 11.4117 25.2185C11.6381 25.4292 11.9255 25.5336 12.2122 25.5336C12.527 25.5336 12.841 25.4077 13.0726 25.1591L15.6282 22.4142C16.0704 21.9392 16.0439 21.1956 15.569 20.7533C15.0941 20.3115 14.3506 20.3378 13.9082 20.8127Z" fill="#A1BA45"/>
<path d="M14.7682 13.3394H11.6447C10.9957 13.3394 10.4696 13.8653 10.4696 14.5145C10.4696 15.1636 10.9957 15.6896 11.6447 15.6896H14.7684C15.4173 15.6896 15.9435 15.1636 15.9435 14.5145C15.9435 13.8653 15.4172 13.3394 14.7682 13.3394Z" fill="#A1BA45"/>
</g>
<defs>
<clipPath id="clip0">
<rect width="80" height="80" fill="white"/>
</clipPath>
</defs>
</svg>
