<svg width="80" height="80" viewBox="0 0 80 80" fill="none" xmlns="http://www.w3.org/2000/svg">
<path d="M40.4333 28.3604H10.4358C9.7886 28.3604 9.26407 28.885 9.26407 29.5321C9.26407 30.1793 9.7886 30.7038 10.4358 30.7038H40.4334C41.0806 30.7038 41.6052 30.1791 41.6052 29.5321C41.6052 28.885 41.0806 28.3604 40.4333 28.3604Z" fill="#A1BA45"/>
<path d="M40.4333 36.5938H10.4358C9.7886 36.5938 9.26407 37.1184 9.26407 37.7655C9.26407 38.4125 9.7886 38.9372 10.4358 38.9372H40.4334C41.0806 38.9372 41.6052 38.4125 41.6052 37.7655C41.6052 37.1184 41.0806 36.5938 40.4333 36.5938Z" fill="#A1BA45"/>
<path d="M40.4333 44.8276H10.4358C9.7886 44.8276 9.26407 45.3523 9.26407 45.9994C9.26407 46.6464 9.7886 47.1711 10.4358 47.1711H40.4334C41.0806 47.1711 41.6052 46.6464 41.6052 45.9994C41.6052 45.3523 41.0806 44.8276 40.4333 44.8276Z" fill="#A1BA45"/>
<path d="M41.6052 54.2332C41.6052 53.5861 41.0806 53.0615 40.4334 53.0615H10.4358C9.7886 53.0615 9.26407 53.5862 9.26407 54.2332C9.26407 54.8803 9.7886 55.405 10.4358 55.405H40.4334C41.0806 55.405 41.6052 54.8804 41.6052 54.2332Z" fill="#A1BA45"/>
<path d="M10.4358 65.1284C9.7886 65.1284 9.26407 65.6531 9.26407 66.3001C9.26407 66.9472 9.7886 67.4719 10.4358 67.4719H25.473C26.1202 67.4719 26.6447 66.9472 26.6447 66.3001C26.6447 65.6531 26.1202 65.1284 25.473 65.1284H10.4358Z" fill="#A1BA45"/>
<path d="M53.9365 14.5082V10.706C53.9365 9.25754 52.7583 8.0791 51.3097 8.0791H27.2523C25.8039 8.0791 24.6256 9.25754 24.6256 10.706V14.5082C24.6256 15.9566 25.8039 17.1349 27.2523 17.1349H29.2839C29.9311 17.1349 30.4556 16.6102 30.4556 15.9632C30.4556 15.316 29.9311 14.7914 29.2839 14.7914H27.2523C27.0962 14.7914 26.9692 14.6644 26.9692 14.5083V10.706C26.9692 10.5499 27.0962 10.4227 27.2523 10.4227H51.3097C51.4659 10.4227 51.593 10.5497 51.593 10.706V14.5082C51.593 14.6643 51.4659 14.7913 51.3097 14.7913H34.762C34.1148 14.7913 33.5903 15.316 33.5903 15.963C33.5903 16.6102 34.1148 17.1347 34.762 17.1347H51.3098C52.7583 17.135 53.9365 15.9566 53.9365 14.5082Z" fill="#A1BA45"/>
<path d="M62.6981 71.4525C62.0509 71.4525 61.5264 71.9772 61.5264 72.6242V74.2022C61.5264 76.1067 59.9769 77.6564 58.072 77.6564H6.23421C4.32968 77.6564 2.77999 76.1069 2.77999 74.2022V17.8794C2.77999 17.6258 2.80968 17.377 2.86265 17.135H13.5319C15.7594 17.135 17.5716 15.3228 17.5716 13.0953V2.42625C17.8136 2.37328 18.0622 2.34359 18.3158 2.34359H58.0719C59.9765 2.34359 61.5262 3.89312 61.5262 5.79781V21.3981C61.5262 22.0453 62.0508 22.5698 62.698 22.5698C63.3451 22.5698 63.8697 22.0452 63.8697 21.3981V5.79766C63.8698 2.60094 61.2689 0 58.072 0H18.3159C16.7673 0 15.3112 0.603125 14.2162 1.69813L2.13452 13.7798C1.03952 14.8748 0.436554 16.3308 0.436554 17.8795V74.2023C0.436554 77.3992 3.03733 80 6.23421 80H58.072C61.2689 80 63.8698 77.3991 63.8698 74.2023V72.6244C63.8698 71.9772 63.3453 71.4525 62.6981 71.4525ZM15.2281 4.00063V13.0953C15.2281 14.0306 14.4672 14.7916 13.5319 14.7916H4.43718L15.2281 4.00063Z" fill="#A1BA45"/>
<path d="M78.7472 41.8752C79.5697 40.6679 79.7825 39.1787 79.3311 37.7893C78.8797 36.3999 77.832 35.3202 76.457 34.8271C75.5448 34.4999 74.9362 33.6624 74.9072 32.6937C74.863 31.2335 74.1597 29.9035 72.9776 29.0447C71.7959 28.1862 70.3134 27.9285 68.9115 28.3376C67.9806 28.6091 66.9967 28.2891 66.4036 27.5227C65.5097 26.3672 64.159 25.7046 62.6981 25.7046C61.2373 25.7046 59.8865 26.3672 58.9925 27.5227C58.3994 28.2893 57.4148 28.6088 56.4847 28.3376C55.0826 27.9282 53.6003 28.1862 52.4183 29.0447C51.2364 29.9035 50.5334 31.2333 50.489 32.6935C50.4598 33.6622 49.8514 34.4996 48.939 34.8269C47.564 35.3201 46.5164 36.3999 46.0651 37.7891C45.6137 39.1785 45.8265 40.6679 46.649 41.8751C47.1947 42.6761 47.1947 43.7112 46.649 44.5121C45.8265 45.7194 45.6137 47.2087 46.0651 48.598C46.5164 49.9874 47.564 51.0671 48.939 51.5604C49.8514 51.8877 50.46 52.7251 50.489 53.6938C50.5298 55.0369 51.1453 56.299 52.1781 57.156C52.8595 57.7216 53.6781 58.0755 54.5348 58.1938V68.8622C54.5348 69.7624 55.0231 70.5944 55.8089 71.0333C56.5937 71.4719 57.5586 71.4524 58.3256 70.9801L62.6233 68.3344C62.6933 68.2912 62.735 68.3107 62.7736 68.3344L67.0709 70.9801C67.8376 71.4519 68.8022 71.4722 69.5878 71.0332C70.3737 70.5941 70.8619 69.7621 70.8619 68.8621V58.1935C71.7183 58.0754 72.5369 57.7215 73.2183 57.156C74.2512 56.299 74.8669 55.0371 74.9076 53.6937C74.9367 52.7249 75.5453 51.8874 76.4575 51.5602C77.8326 51.0671 78.8803 49.9872 79.3315 48.5979C79.783 47.2085 79.5701 45.7193 78.7476 44.5119C78.2014 43.7113 78.2014 42.6763 78.7472 41.8752ZM68.2992 68.9844L64.0017 66.3388C63.2028 65.8471 62.194 65.8463 61.3944 66.3388L57.0969 68.9843C56.999 69.0438 56.8783 68.9752 56.8783 68.8621V57.9713C57.6839 57.878 58.4826 58.2058 58.9925 58.8647C59.8867 60.0201 61.2373 60.6827 62.6983 60.6827C64.159 60.6827 65.5097 60.0201 66.4036 58.8647C66.9136 58.2057 67.7125 57.878 68.518 57.9713V68.8621C68.518 68.976 68.3956 69.044 68.2992 68.9844ZM76.8105 45.8319C77.2217 46.4354 77.3279 47.1796 77.1023 47.874C76.8767 48.5683 76.3531 49.108 75.6658 49.3546C73.8404 50.0093 72.6233 51.6847 72.5647 53.623C72.5439 54.3044 72.2444 54.9187 71.7214 55.3527C71.1334 55.8407 70.3372 56.0247 69.5681 55.8004C67.7067 55.2572 65.7369 55.8972 64.55 57.4307C64.1033 58.008 63.4281 58.3393 62.6979 58.3393C61.9679 58.3393 61.2928 58.0082 60.8458 57.4307C59.9397 56.2594 58.577 55.6094 57.1547 55.6094C56.7143 55.6094 56.2681 55.6718 55.8281 55.8002C55.0515 56.0265 54.2576 55.8368 53.6743 55.3526C53.1514 54.9185 52.8518 54.3043 52.8314 53.623C52.7726 51.6847 51.5554 50.0093 49.73 49.3544C49.0428 49.1079 48.5193 48.5683 48.2936 47.874C48.0679 47.1796 48.1742 46.4352 48.5854 45.8318C49.6772 44.2291 49.6772 42.1583 48.5854 40.5557C48.1742 39.9522 48.0679 39.2079 48.2936 38.5133C48.5192 37.819 49.0428 37.2793 49.73 37.0329C51.5554 36.378 52.7726 34.7026 52.8314 32.7643C52.8534 32.0344 53.2047 31.3697 53.7954 30.9407C54.3859 30.5115 55.1265 30.3827 55.8279 30.5871C57.6889 31.1304 59.6592 30.4902 60.8458 28.9568C61.2926 28.3793 61.9676 28.048 62.6979 28.048C63.4281 28.048 64.1031 28.3791 64.55 28.9566C65.7367 30.4902 67.7061 31.1302 69.5679 30.5871C70.2689 30.3824 71.0095 30.5113 71.6003 30.9405C72.1911 31.3696 72.5426 32.0344 72.5645 32.7641C72.6233 34.7024 73.8404 36.378 75.6658 37.0327C76.3531 37.2791 76.8765 37.8188 77.1023 38.5132C77.3279 39.2076 77.2217 39.9521 76.8105 40.5554C75.7184 42.1582 75.7184 44.2293 76.8105 45.8319Z" fill="#A1BA45"/>
<path d="M62.6981 33.3726C57.2828 33.3726 52.8772 37.7782 52.8772 43.1935C52.8772 48.6088 57.2828 53.0144 62.6981 53.0144C68.1133 53.0144 72.5189 48.6088 72.5189 43.1935C72.5189 37.7782 68.1133 33.3726 62.6981 33.3726ZM62.6981 50.671C58.575 50.671 55.2206 47.3166 55.2206 43.1936C55.2206 39.0707 58.575 35.7162 62.6981 35.7162C66.8212 35.7162 70.1754 39.0705 70.1754 43.1936C70.1754 47.3168 66.8211 50.671 62.6981 50.671Z" fill="#A1BA45"/>
</svg>
