<svg width="80" height="80" viewBox="0 0 80 80" fill="none" xmlns="http://www.w3.org/2000/svg">
<g clip-path="url(#clip0)">
<path d="M26.6667 73.3333C24.9133 73.3333 23.1967 72.62 21.9533 71.38L1.95333 51.38C0.713333 50.1367 0 48.42 0 46.6667C0 44.9133 0.713333 43.1967 1.95333 41.9533L31.9533 11.9533C33.1967 10.7133 34.9133 10 36.6667 10H56.6667C57.0967 10 57.5033 10.05 57.9033 10.15C60.9367 10.6133 63.3333 13.4267 63.3333 16.6667V36.6667C63.3333 38.42 62.62 40.1367 61.38 41.38L31.38 71.38C30.1367 72.62 28.42 73.3333 26.6667 73.3333ZM36.6667 13.3333C35.79 13.3333 34.9333 13.69 34.31 14.31L4.31 44.31C3.69 44.9333 3.33333 45.79 3.33333 46.6667C3.33333 47.5433 3.69 48.4 4.31 49.0233L24.31 69.0233C25.5533 70.2667 27.7767 70.2667 29.02 69.0233L59.02 39.0233C59.6433 38.4 60 37.5433 60 36.6667V16.6667C60 15.0567 58.8167 13.6567 57.2433 13.4133C56.9567 13.3467 56.8267 13.3333 56.6667 13.3333H36.6667Z" fill="#A1BA45"/>
<path d="M73.1 79.9997H43.5666C41.75 79.9997 39.98 79.2964 38.7066 78.063C37.41 76.8097 36.6666 75.083 36.6666 73.333V62.0664C36.6666 61.6231 36.8433 61.1997 37.1533 60.8864L59.02 39.0197C59.6433 38.3997 60 37.543 60 36.6664V16.6664C60 15.0564 58.8166 13.6564 57.2433 13.413C56.44 13.2864 55.8466 12.603 55.8333 11.793C55.82 10.983 56.3933 10.2764 57.1933 10.1264C59.36 9.72638 61.6133 10.3997 63.1933 11.9364L77.9533 26.0964C79.2567 27.3564 80 29.083 80 30.833V73.333C80 75.083 79.2567 76.8097 77.96 78.063C76.6867 79.2964 74.9166 79.9997 73.1 79.9997ZM40 62.7564V73.333C40 74.1864 40.3733 75.0397 41.0266 75.6697C41.68 76.303 42.6066 76.6664 43.5666 76.6664H73.1C74.06 76.6664 74.9833 76.303 75.64 75.6697C76.2933 75.0397 76.6666 74.1864 76.6666 73.333V30.833C76.6666 29.9797 76.2933 29.1264 75.64 28.4964L63.3333 16.6897V36.6664C63.3333 38.4197 62.62 40.1364 61.38 41.3797L40 62.7564Z" fill="#A1BA45"/>
<path d="M51.6667 26.667C48.9101 26.667 46.6667 24.4237 46.6667 21.667C46.6667 18.9103 48.9101 16.667 51.6667 16.667C54.4234 16.667 56.6667 18.9103 56.6667 21.667C56.6667 24.4237 54.4234 26.667 51.6667 26.667ZM51.6667 20.0003C50.7467 20.0003 50.0001 20.747 50.0001 21.667C50.0001 22.587 50.7467 23.3337 51.6667 23.3337C52.5867 23.3337 53.3334 22.587 53.3334 21.667C53.3334 20.747 52.5867 20.0003 51.6667 20.0003Z" fill="#A1BA45"/>
<path d="M71.6667 23.3333C70.7467 23.3333 70 22.5867 70 21.6667V11.6667C70 7.07333 66.26 3.33333 61.6667 3.33333C57.0733 3.33333 53.3333 7.07333 53.3333 11.6667V18.3333C53.3333 19.2533 52.5867 20 51.6667 20C50.7467 20 50 19.2533 50 18.3333V11.6667C50 5.23333 55.2333 0 61.6667 0C68.1 0 73.3333 5.23333 73.3333 11.6667V21.6667C73.3333 22.5867 72.5867 23.3333 71.6667 23.3333Z" fill="#A1BA45"/>
</g>
<defs>
<clipPath id="clip0">
<rect width="80" height="80" fill="white"/>
</clipPath>
</defs>
</svg>
