<?xml version="1.0" standalone="no"?>
<!DOCTYPE svg PUBLIC "-//W3C//DTD SVG 20010904//EN"
 "http://www.w3.org/TR/2001/REC-SVG-20010904/DTD/svg10.dtd">
<svg version="1.0" xmlns="http://www.w3.org/2000/svg"
 width="2880.000000pt" height="2880.000000pt" viewBox="0 0 2880.000000 2880.000000"
 preserveAspectRatio="xMidYMid meet">
<metadata>
Created by potrace 1.14, written by Peter Selinger 2001-2017
</metadata>
<g transform="translate(0.000000,2880.000000) scale(0.100000,-0.100000)"
fill="#000000" stroke="none">
<path d="M5740 19113 c0 -5 -10 -13 -23 -19 -56 -27 -142 -78 -145 -86 -2 -4
-12 -8 -22 -8 -9 0 -23 -7 -30 -15 -7 -8 -16 -15 -20 -15 -4 0 -97 -52 -208
-115 -111 -63 -206 -115 -211 -115 -5 0 -11 -3 -13 -7 -1 -5 -19 -17 -38 -27
-19 -11 -55 -30 -80 -44 -25 -13 -111 -62 -191 -108 -81 -46 -151 -84 -157
-84 -6 0 -12 -3 -14 -8 -4 -9 -417 -242 -429 -242 -5 0 -9 -3 -9 -8 0 -4 -15
-13 -32 -21 -18 -8 -44 -22 -58 -31 -14 -10 -52 -32 -85 -50 -95 -52 -136 -75
-193 -109 -29 -17 -54 -31 -56 -31 -2 0 -33 -17 -67 -39 -35 -21 -74 -41 -86
-45 -13 -4 -23 -12 -23 -18 0 -6 -3 -8 -7 -5 -3 4 -13 1 -22 -7 -9 -8 -38 -26
-66 -40 -27 -15 -57 -31 -65 -36 -91 -54 -229 -130 -236 -130 -5 0 -8 286 -7
699 l1 699 -38 -26 c-80 -57 -175 -126 -180 -131 -3 -4 -22 -17 -42 -31 -21
-14 -38 -28 -38 -32 0 -5 -4 -8 -9 -8 -9 0 -106 -69 -167 -118 -12 -9 -30 -22
-40 -28 -18 -11 -19 -40 -24 -674 -4 -575 -7 -664 -20 -671 -93 -54 -241 -137
-265 -149 -16 -8 -32 -17 -35 -21 -3 -3 -34 -21 -70 -41 -140 -77 -168 -93
-240 -136 -41 -25 -81 -45 -87 -45 -7 0 -13 -4 -13 -8 0 -4 -10 -11 -22 -15
-13 -4 -25 -10 -28 -14 -3 -3 -30 -20 -60 -36 -64 -35 -104 -58 -293 -165 -76
-44 -143 -79 -148 -79 -5 0 -9 -4 -9 -8 0 -4 -12 -13 -27 -19 -16 -7 -41 -20
-58 -30 -28 -17 -101 -58 -185 -106 -19 -11 -70 -39 -113 -64 -42 -24 -99 -55
-125 -70 -26 -14 -60 -35 -77 -45 -16 -10 -42 -23 -57 -29 -16 -6 -28 -15 -28
-21 0 -5 -4 -7 -9 -3 -5 3 -12 1 -15 -4 -4 -5 -46 -31 -94 -57 -48 -26 -95
-54 -104 -62 -10 -8 -18 -11 -18 -6 0 5 -4 5 -8 -1 -4 -5 -23 -18 -42 -29 -19
-10 -51 -28 -70 -39 -19 -11 -60 -34 -90 -50 -30 -17 -71 -40 -90 -51 -19 -12
-52 -30 -72 -41 l-38 -20 0 -297 c0 -279 1 -297 18 -291 9 4 66 35 126 70 60
35 110 63 112 63 4 0 167 95 204 118 14 9 27 17 30 17 9 1 75 38 80 44 3 4 16
12 30 18 14 7 48 25 75 41 28 16 61 35 75 43 14 8 27 16 30 19 3 3 32 19 65
37 33 17 116 63 183 102 68 39 128 71 133 71 5 0 9 5 9 10 0 6 4 10 10 10 5 0
44 20 86 45 41 25 77 45 79 45 2 0 85 47 185 105 101 57 191 107 201 110 11 4
19 11 19 16 0 5 4 9 9 9 4 0 105 55 222 121 118 67 239 135 269 152 30 17 57
33 60 36 3 3 25 16 50 29 25 12 68 36 95 53 28 16 58 32 68 36 9 3 17 9 17 14
0 5 3 8 8 7 4 -1 39 16 77 38 39 23 90 52 115 66 25 14 63 36 85 48 22 13 54
30 70 38 17 9 32 18 35 22 3 4 39 24 80 46 41 21 77 42 80 45 3 3 46 28 95 54
50 27 92 52 93 57 2 4 12 8 22 8 10 0 20 4 22 8 2 5 41 30 88 56 47 26 101 56
120 68 19 11 55 31 80 45 25 13 61 34 80 45 47 28 140 79 167 92 13 6 23 14
23 19 0 4 6 7 13 7 6 0 35 15 62 32 28 17 73 43 100 58 93 50 150 83 165 95 8
6 32 19 52 29 20 9 40 21 43 26 4 6 11 8 16 5 5 -4 9 -2 9 3 0 5 8 12 18 15 9
4 44 22 77 42 33 20 71 41 85 48 14 6 27 14 30 18 3 3 19 12 35 21 17 8 47 24
68 36 20 12 54 32 75 44 20 12 71 40 112 63 41 23 99 56 128 74 29 17 57 31
62 31 5 0 15 6 22 13 8 6 24 18 37 25 43 25 94 53 276 155 99 56 182 104 185
107 3 3 23 14 45 25 22 11 42 22 45 25 3 3 16 11 30 18 14 6 33 17 42 24 19
13 36 6 168 -68 36 -20 82 -45 103 -56 21 -11 41 -28 46 -37 5 -9 8 -1957 7
-4329 l-1 -4312 25 -1 c25 0 398 0 476 1 l41 0 -1 468 c-1 263 2 472 7 480 5
6 6 12 1 12 -11 0 -11 611 0 628 4 7 4 12 -1 12 -10 0 -9 931 1 948 4 7 4 12
-1 12 -4 0 -8 134 -7 297 l0 298 1810 3 1809 2 0 -1580 c-1 -1417 1 -1580 15
-1580 94 -4 514 1 518 5 3 3 6 1352 6 2997 1 2410 3 2993 14 2990 7 -1 81 -41
165 -89 83 -47 175 -98 202 -113 28 -15 100 -56 160 -90 61 -34 135 -75 165
-92 30 -17 62 -35 70 -41 8 -6 12 -8 8 -3 -4 5 -3 17 2 27 7 12 7 20 0 24 -8
5 -7 11 1 21 9 11 9 14 0 14 -9 0 -9 5 -1 20 8 14 8 20 0 20 -8 0 -8 6 0 20 8
14 8 20 0 20 -8 0 -8 6 0 20 8 14 8 20 0 20 -8 0 -8 6 0 20 8 14 8 20 0 20 -8
0 -8 6 0 20 8 14 8 20 0 20 -8 0 -8 6 0 20 8 14 8 20 0 20 -8 0 -8 6 0 20 8
14 8 20 0 20 -8 0 -8 6 0 20 8 14 8 20 0 20 -8 0 -8 6 0 20 8 14 8 20 0 20 -8
0 -8 6 0 20 8 14 8 20 0 20 -8 0 -8 6 0 20 8 14 8 20 0 20 -7 0 -8 6 0 19 6
13 7 22 0 26 -5 3 -7 12 -4 20 4 9 -3 18 -18 24 -13 5 -48 23 -78 41 -30 18
-84 48 -120 67 -36 20 -72 42 -81 49 -8 8 -19 14 -23 14 -4 0 -64 33 -134 73
-70 40 -142 80 -160 88 -17 7 -32 17 -32 21 0 5 -4 8 -9 8 -6 0 -36 15 -68 34
-32 18 -80 46 -108 61 -27 15 -72 41 -100 57 -27 16 -62 34 -77 41 -16 6 -28
15 -28 19 0 4 -7 8 -15 8 -8 0 -15 5 -15 12 0 6 -3 8 -7 5 -3 -4 -11 -3 -17 2
-9 7 -407 233 -606 343 -25 14 -115 65 -200 113 -85 48 -168 96 -185 105 -16
9 -51 29 -78 43 -26 15 -68 39 -95 54 -63 36 -105 59 -149 84 -43 25 -98 55
-193 107 -36 20 -67 38 -70 41 -3 4 -30 19 -60 36 -30 16 -73 40 -95 52 -22
13 -52 29 -67 35 -16 7 -28 16 -28 20 0 4 -5 8 -11 8 -5 0 -57 27 -114 60 -57
33 -109 60 -114 60 -6 0 -11 5 -11 10 0 6 -4 10 -9 10 -5 0 -68 34 -140 75
-71 41 -135 75 -140 75 -5 0 -16 6 -23 14 -8 7 -43 29 -78 48 -145 78 -205
112 -208 120 -2 4 -8 8 -13 8 -5 0 -98 50 -206 112 -109 61 -223 125 -253 141
-30 17 -67 38 -82 49 -14 10 -28 18 -31 18 -3 0 -37 18 -76 40 -38 22 -87 49
-108 61 -21 12 -58 33 -83 47 -43 24 -148 83 -235 132 -22 13 -60 34 -85 48
-25 14 -97 54 -160 90 -63 36 -140 79 -170 95 -30 16 -59 33 -65 37 -10 8 -98
57 -163 91 -18 10 -38 22 -45 27 -7 5 -34 22 -62 36 -27 15 -72 40 -100 56
-50 29 -75 36 -75 23z m940 -1120 c41 -19 426 -238 431 -246 3 -4 12 -9 20
-11 8 -1 34 -13 59 -28 70 -40 180 -103 230 -130 25 -14 97 -55 160 -90 63
-36 135 -76 160 -90 25 -14 61 -34 80 -45 19 -11 56 -32 83 -46 64 -37 115
-65 231 -131 54 -31 100 -56 102 -56 3 0 21 -10 42 -23 20 -13 62 -37 92 -54
30 -17 84 -47 120 -68 36 -20 74 -41 85 -46 11 -6 29 -15 40 -22 68 -41 206
-117 213 -117 4 0 19 -10 32 -22 14 -13 26 -22 27 -20 5 4 138 -71 141 -80 2
-4 10 -8 19 -8 8 0 27 -8 41 -18 15 -11 52 -32 82 -48 30 -16 57 -31 60 -35 3
-3 19 -12 35 -20 31 -16 49 -26 284 -158 78 -45 147 -81 152 -81 5 0 9 -4 9
-9 0 -5 8 -11 18 -14 9 -3 42 -20 72 -38 107 -62 135 -78 177 -98 23 -12 45
-26 48 -31 4 -6 11 -8 16 -5 5 4 9 1 9 -4 0 -6 4 -11 9 -11 5 0 38 -17 73 -37
l63 -38 0 -1290 -1 -1290 -1806 -1 -1806 0 -5 25 c-3 14 -1 29 5 32 6 4 6 9 2
12 -11 6 -11 658 0 675 4 7 4 12 -1 12 -10 0 -9 1251 1 1268 4 7 4 12 -1 12
-10 0 -10 771 1 788 4 7 3 12 -2 12 -11 0 -10 50 1 68 5 6 5 12 0 12 -10 0 -9
211 1 228 4 7 4 12 -1 12 -10 0 -9 291 1 308 4 7 3 12 -2 12 -11 0 -10 50 1
68 5 6 5 12 0 12 -10 0 -9 211 1 228 4 7 4 12 -1 12 -10 0 -10 451 1 468 4 7
4 12 -1 12 -6 0 -10 325 -4 337 1 1 20 -9 44 -23 23 -13 49 -27 57 -31z"/>
<path d="M5435 17633 c-33 -19 -72 -39 -87 -46 -16 -6 -28 -14 -28 -18 0 -4
-11 -10 -24 -13 -14 -3 -31 -12 -38 -19 -7 -6 -29 -20 -48 -29 -32 -16 -85
-45 -200 -109 -25 -14 -97 -54 -160 -89 -63 -35 -133 -74 -155 -87 -22 -13
-60 -33 -85 -46 -25 -12 -47 -24 -50 -27 -6 -6 -31 -20 -138 -77 -48 -26 -89
-49 -92 -52 -3 -3 -23 -15 -45 -26 -22 -10 -53 -28 -68 -38 -15 -10 -33 -20
-40 -21 -7 -1 -30 -13 -52 -27 -22 -13 -53 -31 -70 -39 -16 -8 -32 -17 -35
-20 -3 -3 -23 -15 -45 -27 -22 -11 -57 -30 -77 -42 -21 -11 -68 -37 -105 -57
-37 -20 -97 -54 -133 -74 -36 -20 -105 -59 -155 -86 -49 -27 -99 -54 -110 -61
-11 -7 -31 -18 -45 -25 -14 -7 -67 -37 -118 -65 -52 -29 -98 -53 -103 -53 -5
0 -9 -4 -9 -10 0 -5 -9 -10 -19 -10 -11 0 -21 -3 -23 -7 -3 -9 -38 -29 -118
-70 -30 -15 -57 -30 -60 -33 -5 -5 -66 -39 -125 -69 -16 -9 -32 -18 -35 -21
-3 -3 -34 -21 -70 -39 -91 -48 -104 -55 -110 -61 -3 -3 -18 -12 -35 -20 -16
-8 -66 -35 -110 -61 -44 -25 -95 -52 -113 -60 -17 -7 -32 -17 -32 -21 0 -5 -4
-8 -9 -8 -5 0 -53 -25 -106 -55 -54 -30 -104 -55 -111 -55 -8 0 -14 -4 -14 -8
0 -5 -35 -26 -78 -48 -42 -21 -79 -42 -82 -45 -3 -3 -39 -24 -80 -46 -41 -22
-100 -55 -130 -72 -30 -17 -75 -41 -100 -53 -25 -13 -47 -26 -50 -30 -3 -4
-21 -14 -40 -23 -19 -9 -53 -26 -75 -39 -96 -54 -163 -92 -210 -118 -27 -15
-61 -33 -75 -41 -14 -7 -96 -53 -183 -101 l-157 -87 2 -2670 3 -2670 2350 0
c1293 0 2355 0 2362 1 8 0 11 58 11 209 -1 114 2 213 6 220 4 6 4 11 -1 11 -9
0 -8 133 1 149 4 6 4 11 -1 11 -9 0 -9 441 0 465 4 8 3 15 -1 15 -9 0 -7 134
2 149 4 6 4 11 -1 11 -9 0 -9 441 0 465 4 8 3 15 -1 15 -9 0 -7 134 2 149 4 6
4 11 -1 11 -9 0 -9 441 0 465 4 8 3 15 -1 15 -9 0 -7 134 2 149 4 6 4 11 -1
11 -9 0 -9 441 0 465 4 8 3 15 -1 15 -9 0 -7 134 2 149 4 6 4 11 -1 11 -9 0
-9 441 0 465 4 8 2 15 -2 15 -5 0 -7 17 -4 39 7 48 13 47 -219 45 -122 0 -178
3 -178 10 0 8 -2 8 -8 0 -10 -15 -404 -15 -414 0 -5 7 -8 8 -8 1 0 -15 -470
-15 -470 -1 0 8 -2 8 -8 0 -10 -15 -404 -15 -414 0 -5 8 -8 8 -8 0 0 -13 -508
-13 -529 0 -10 6 -12 6 -7 -2 4 -7 3 -12 -1 -12 -4 0 -8 -125 -8 -277 l0 -278
847 -3 847 -2 0 -76 c0 -42 2 -78 4 -80 3 -3 1 -20 -3 -38 -4 -19 -4 -40 1
-47 4 -7 3 -21 -2 -30 -6 -12 -5 -20 1 -24 6 -4 7 -11 3 -18 -7 -12 -6 -154 2
-167 3 -5 1 -11 -4 -14 -4 -3 -5 -23 -1 -45 4 -21 3 -46 -2 -54 -5 -10 -4 -18
2 -22 6 -4 7 -11 4 -17 -4 -6 -7 -32 -6 -57 1 -25 2 -72 3 -103 0 -31 -1 -60
-4 -65 -3 -5 -2 -15 3 -23 5 -8 5 -21 -1 -31 -6 -12 -5 -20 1 -24 6 -4 7 -11
3 -18 -7 -12 -6 -154 2 -167 3 -5 1 -11 -4 -14 -4 -3 -5 -23 -1 -45 4 -21 3
-46 -2 -54 -5 -10 -4 -18 2 -22 6 -4 7 -11 4 -17 -4 -6 -7 -32 -6 -57 1 -25 2
-72 3 -103 0 -31 -1 -60 -4 -65 -3 -5 -2 -15 3 -23 5 -8 5 -21 -1 -31 -6 -12
-5 -20 1 -24 6 -4 7 -11 3 -18 -7 -12 -6 -154 2 -167 3 -5 1 -11 -4 -14 -4 -3
-5 -23 -1 -45 4 -21 3 -46 -2 -54 -5 -10 -4 -18 2 -22 6 -4 7 -11 4 -17 -4 -6
-7 -32 -6 -57 1 -25 2 -72 3 -103 0 -31 -1 -60 -4 -65 -3 -5 -2 -15 3 -23 5
-8 5 -21 -1 -31 -6 -12 -5 -20 1 -24 6 -4 7 -11 3 -18 -7 -12 -6 -154 2 -167
3 -5 1 -11 -4 -14 -4 -3 -5 -23 -1 -45 4 -21 3 -46 -2 -55 -6 -10 -5 -16 2
-16 7 0 8 -6 2 -16 -5 -9 -7 -24 -5 -34 4 -16 -109 -17 -1781 -17 l-1786 0 0
96 c-1 132 -1 4255 0 4312 l0 45 142 79 c79 43 144 82 146 87 2 4 12 8 23 8
10 0 19 5 19 10 0 6 4 10 9 10 9 0 192 100 201 109 3 3 21 14 40 23 19 10 62
33 95 52 33 19 81 45 108 58 26 13 47 26 47 30 0 5 6 8 14 8 8 0 22 7 30 16 9
9 22 17 29 18 7 1 36 16 65 34 29 17 54 32 57 32 2 0 32 16 66 37 89 51 158
89 202 110 20 10 37 21 37 25 0 5 4 8 9 8 5 0 48 22 95 50 47 27 86 46 86 42
0 -4 4 -2 8 3 4 6 21 17 37 25 17 8 36 21 43 28 7 6 20 12 28 12 8 0 14 5 14
10 0 6 5 10 10 10 6 0 45 20 88 44 100 56 164 92 232 129 30 17 57 34 58 39 2
4 10 8 18 8 7 0 42 17 76 38 35 21 84 49 111 62 26 13 47 28 47 32 0 5 3 7 8
4 4 -2 32 11 62 30 30 19 60 34 66 34 7 0 14 4 16 8 2 5 44 30 93 57 50 26 95
51 100 55 6 4 35 21 65 37 30 17 84 47 118 67 35 20 68 36 73 36 5 0 9 5 9 10
0 6 9 10 19 10 11 0 21 4 23 8 2 5 44 30 93 57 50 27 104 57 120 67 17 10 37
21 45 25 8 3 27 15 43 25 15 11 27 16 27 11 0 -4 4 -3 8 2 4 6 16 15 27 21 38
20 140 77 175 97 19 11 55 31 80 45 25 14 87 49 138 78 52 30 95 54 97 54 2 0
58 31 124 69 67 39 121 68 121 65 0 -3 6 0 13 6 6 6 30 21 52 34 31 17 40 28
42 51 3 42 3 86 0 115 -2 14 1 31 6 38 5 6 6 12 1 12 -7 0 -10 63 -4 80 2 3 1
10 0 15 -6 29 -5 67 2 71 5 3 4 13 -1 21 -5 9 -5 29 -1 45 5 15 6 28 2 28 -4
0 -6 26 -4 58 2 33 2 70 0 84 l-3 24 -60 -33z"/>
<path d="M14117 15884 c-1 -2 -34 -6 -72 -10 -78 -7 -110 -11 -110 -14 0 -2
-9 -4 -20 -6 -143 -21 -387 -134 -482 -224 -13 -11 -23 -18 -23 -14 0 4 -39
-33 -88 -82 -83 -85 -201 -234 -185 -234 5 0 3 -4 -2 -8 -6 -4 -17 -20 -25
-37 -8 -16 -18 -32 -21 -35 -6 -5 -47 -110 -55 -140 -2 -8 -13 -51 -25 -95
-33 -127 -32 -400 2 -540 5 -22 12 -51 15 -64 3 -13 11 -36 19 -51 8 -15 11
-30 8 -34 -4 -3 -1 -6 6 -6 7 0 10 -4 7 -8 -9 -15 98 -196 162 -274 131 -161
283 -275 482 -361 141 -62 301 -91 495 -91 151 1 250 14 380 50 11 3 27 7 35
9 8 1 22 5 30 8 26 9 55 18 57 18 16 -2 223 101 223 111 0 5 5 8 10 8 12 0
104 67 159 115 86 75 109 107 101 140 -1 6 -2 30 0 55 4 99 3 191 -3 196 -3 3
-2 17 3 30 6 14 6 24 0 24 -5 0 -5 12 0 30 5 19 5 28 -1 25 -5 -4 -5 3 0 18 5
13 6 30 1 37 -5 7 -4 24 1 37 5 12 5 23 1 23 -4 0 -7 27 -7 60 0 33 3 60 6 60
4 0 3 16 -1 35 -4 19 -5 35 -1 35 8 0 6 59 -3 86 -6 18 -22 19 -400 19 -217 0
-398 -4 -402 -8 -5 -4 -8 -77 -9 -162 l0 -153 38 -4 c20 -2 37 0 37 5 0 4 9 3
20 -3 11 -6 20 -7 20 -3 0 4 45 6 100 3 55 -3 100 -1 100 3 0 4 9 3 20 -3 11
-6 20 -7 20 -2 0 4 21 5 48 2 l47 -5 0 -175 0 -175 -35 -32 c-19 -18 -46 -38
-60 -45 -14 -7 -27 -16 -30 -19 -15 -19 -210 -101 -253 -107 -4 -1 -22 -3 -40
-6 -175 -28 -317 -24 -452 13 -80 22 -215 80 -215 93 0 4 -5 8 -11 8 -30 0
-221 177 -240 223 -6 15 -15 27 -19 27 -4 0 -26 37 -49 83 -110 222 -115 498
-14 727 54 121 195 279 318 357 56 35 146 78 158 75 4 -1 7 2 7 6 0 5 6 9 13
9 6 0 32 6 57 13 25 7 54 14 65 17 11 3 77 6 147 8 129 3 201 -8 335 -49 58
-18 170 -73 191 -93 7 -7 17 -13 22 -13 5 0 48 -38 97 -85 48 -47 91 -85 95
-85 4 0 57 50 118 111 l111 110 -33 36 c-77 83 -122 123 -139 123 -5 0 -7 5
-4 10 3 6 -1 10 -9 10 -8 0 -21 6 -28 14 -21 20 -156 106 -168 106 -6 0 -10 5
-10 10 0 6 -3 9 -7 8 -9 -1 -25 5 -90 33 -23 11 -46 19 -52 19 -6 0 -31 7 -57
16 -26 9 -60 18 -77 20 -16 2 -36 6 -46 8 -43 13 -305 29 -314 20z"/>
<path d="M18687 15884 c-1 -1 -24 -5 -52 -8 -122 -16 -197 -37 -276 -77 -169
-85 -295 -236 -331 -399 -16 -69 -15 -216 0 -285 14 -62 53 -153 82 -190 35
-46 130 -133 159 -145 17 -7 31 -16 31 -21 0 -5 4 -9 9 -9 5 0 42 -15 83 -34
61 -28 113 -49 113 -47 0 1 40 -12 88 -29 48 -16 98 -32 110 -35 140 -30 301
-84 373 -126 114 -65 158 -134 158 -249 1 -116 -49 -202 -162 -279 -117 -81
-372 -96 -562 -34 -113 37 -199 87 -284 167 -27 25 -50 46 -52 46 -6 0 -224
-217 -224 -223 0 -17 159 -157 178 -157 6 0 12 -4 14 -9 3 -7 144 -91 153 -91
2 0 16 -5 32 -12 15 -6 33 -12 38 -14 6 -1 31 -9 57 -18 122 -42 404 -65 526
-42 17 3 47 8 65 11 17 3 40 8 49 11 9 3 25 7 36 9 37 7 142 53 199 86 54 33
193 161 193 179 0 5 6 15 13 22 23 23 67 125 82 194 57 244 -26 505 -199 623
-104 71 -327 163 -501 205 -33 8 -85 22 -115 31 -30 9 -62 17 -70 19 -116 28
-255 119 -293 191 -21 42 -39 141 -27 158 1 1 3 10 5 20 2 10 7 26 11 35 4 9
8 20 8 25 2 16 103 110 138 128 52 26 145 47 207 45 28 0 51 3 51 7 0 5 5 5
11 1 10 -6 65 -14 122 -17 9 -1 17 -5 17 -9 0 -4 9 -8 21 -8 35 0 162 -68 217
-116 l52 -46 98 94 c144 137 139 129 96 172 -19 19 -63 53 -97 75 -34 22 -66
44 -72 49 -5 4 -12 8 -15 9 -3 0 -23 9 -45 20 -47 24 -149 60 -187 67 -15 2
-31 7 -35 9 -19 12 -286 30 -296 21z"/>
<path d="M15638 15849 c-10 -6 -13 -1412 -3 -1474 2 -16 7 -45 10 -64 17 -115
82 -258 167 -369 159 -207 396 -345 648 -379 68 -8 231 -9 285 0 79 12 151 29
195 45 25 9 47 17 50 17 3 0 34 15 70 34 172 88 321 231 417 401 30 52 83 195
86 233 1 9 4 17 7 17 3 0 6 21 8 48 6 117 8 1469 1 1482 -6 13 -35 15 -178 14
-94 0 -173 -3 -177 -6 -3 -4 -7 -334 -8 -735 -1 -400 -6 -741 -10 -757 -4 -16
-11 -37 -17 -48 -5 -10 -7 -18 -5 -18 3 0 -11 -32 -31 -72 -34 -66 -128 -174
-203 -233 -53 -42 -180 -93 -250 -100 -14 -2 -25 -4 -25 -5 0 -1 -21 -2 -48
-3 -26 -1 -47 0 -47 3 0 3 -19 4 -42 4 -58 -2 -176 38 -246 82 -73 47 -105 76
-176 159 -29 34 -96 164 -96 187 0 8 -3 18 -7 21 -13 13 -14 66 -16 784 -2
397 -6 726 -10 729 -9 9 -335 11 -349 3z"/>
<path d="M20743 15852 c-13 -2 -23 -8 -23 -13 0 -6 -9 -29 -20 -51 -11 -23
-20 -46 -20 -51 0 -5 -13 -38 -30 -74 -16 -35 -33 -75 -36 -89 -3 -13 -10 -24
-15 -24 -5 0 -8 -3 -7 -7 2 -11 -12 -45 -61 -155 -12 -26 -21 -49 -21 -52 0
-5 -15 -40 -60 -141 -5 -11 -30 -69 -55 -130 -26 -60 -53 -124 -61 -142 -8
-17 -14 -34 -14 -37 0 -3 -11 -29 -24 -58 -21 -46 -40 -90 -89 -208 -6 -14
-10 -28 -9 -32 1 -5 -3 -8 -8 -8 -5 0 -10 -6 -10 -13 0 -7 -9 -32 -20 -55 -11
-22 -20 -48 -20 -57 0 -8 -4 -15 -10 -15 -5 0 -10 -11 -10 -24 0 -13 -3 -26
-7 -28 -9 -4 -75 -157 -76 -175 0 -7 -4 -13 -9 -13 -4 0 -8 -5 -8 -11 0 -6
-22 -63 -50 -127 -27 -64 -50 -122 -50 -129 0 -7 -4 -13 -10 -13 -5 0 -10 -8
-10 -18 0 -10 -3 -22 -7 -26 -5 -4 -8 -11 -9 -14 0 -4 -5 -16 -9 -27 -5 -11
-30 -69 -56 -130 -26 -60 -44 -112 -39 -115 7 -4 339 -5 373 -1 4 1 6 4 5 9
-2 6 45 124 82 207 5 11 32 76 60 145 28 69 57 136 64 150 8 14 15 30 16 35 1
6 6 19 10 30 8 20 16 20 521 20 l513 0 38 -90 c21 -50 50 -119 65 -155 14 -36
33 -83 43 -105 9 -22 27 -65 40 -95 13 -30 31 -74 41 -97 11 -24 19 -46 19
-50 0 -5 85 -8 190 -8 104 0 190 3 190 8 0 4 -9 29 -21 55 -12 26 -25 56 -29
67 -4 11 -20 46 -34 78 -14 32 -26 60 -26 63 0 4 -16 42 -50 119 -50 113 -60
138 -60 150 0 8 -4 15 -10 15 -5 0 -10 5 -10 12 0 10 -63 165 -119 293 -10 22
-33 76 -51 120 -18 44 -41 98 -51 120 -10 22 -57 130 -103 240 -100 238 -301
713 -326 770 -9 22 -28 66 -40 98 -13 31 -28 57 -34 58 -30 3 -324 4 -343 1z
m191 -455 c2 -7 8 -25 14 -40 7 -15 30 -74 53 -130 22 -56 47 -118 56 -137 24
-57 29 -70 98 -242 13 -32 20 -58 17 -58 -4 0 -2 -4 4 -8 5 -4 18 -29 28 -57
17 -45 27 -70 72 -173 8 -18 14 -35 14 -37 0 -3 -171 -5 -379 -5 l-380 0 25
63 c14 34 32 76 40 94 8 17 14 34 14 38 0 3 10 27 21 53 12 25 22 51 24 57 1
5 11 30 22 55 11 25 24 56 28 70 4 14 11 30 15 35 3 6 15 33 25 60 21 59 52
133 65 157 6 10 10 25 10 33 0 8 4 15 8 15 5 0 9 6 9 13 0 12 57 158 71 181 5
8 22 -15 26 -37z"/>
<path d="M22509 15850 c-1 -3 -3 -512 -3 -1132 -1 -776 1 -1128 9 -1129 5 -1
87 -2 181 -3 l171 -1 1 430 c0 236 1 434 1 439 1 4 8 6 16 2 8 -3 15 -2 15 2
0 4 45 5 100 2 55 -3 100 -1 100 3 0 4 9 3 20 -3 11 -6 20 -7 20 -3 0 4 45 6
100 3 55 -3 100 -1 100 3 0 4 9 3 19 -3 14 -7 22 -7 26 0 6 10 38 -41 135
-215 19 -33 39 -70 44 -82 6 -13 14 -23 19 -23 4 0 7 -4 7 -9 0 -5 24 -51 54
-103 29 -51 64 -113 78 -138 23 -42 36 -64 87 -152 25 -45 69 -120 80 -138 8
-12 43 -14 196 -15 169 0 234 7 198 22 -7 2 -13 11 -13 19 0 8 -4 14 -10 14
-5 0 -10 9 -10 20 0 11 -4 20 -10 20 -5 0 -12 11 -16 25 -3 14 -9 25 -13 25
-3 0 -15 17 -26 38 -20 37 -87 154 -105 182 -6 8 -16 26 -22 40 -7 14 -15 27
-18 30 -4 3 -24 36 -46 74 -21 38 -46 81 -54 95 -8 14 -31 53 -50 86 -19 33
-43 74 -53 90 -9 17 -20 38 -23 48 -4 9 -10 17 -14 17 -8 0 -35 59 -29 64 2 1
27 13 54 26 28 13 56 29 62 34 7 6 43 36 81 66 110 88 172 174 219 300 57 151
49 371 -18 517 -64 137 -189 266 -324 333 -73 36 -212 79 -260 80 -179 3
-1075 4 -1076 0z m1091 -338 c99 -33 181 -105 226 -199 25 -52 29 -69 29 -158
0 -90 -3 -106 -28 -158 -27 -53 -119 -157 -141 -157 -5 0 -17 -6 -25 -13 -41
-35 -101 -40 -448 -41 -338 -2 -343 -1 -344 19 -1 25 -1 696 0 712 1 20 671
15 731 -5z"/>
<path d="M24750 15850 c-8 -5 -10 -26 -11 -100 0 -8 1 -53 1 -100 1 -47 1 -89
0 -95 -1 -5 -2 -14 0 -20 2 -13 2 -128 0 -140 -1 -6 -2 -14 -1 -20 3 -14 3
-209 0 -221 -1 -5 -1 -13 0 -19 2 -14 2 -290 0 -301 -1 -5 -1 -13 0 -19 1 -5
2 -48 1 -95 -1 -101 -1 -77 0 -230 1 -69 1 -130 0 -135 -2 -6 -2 -12 -1 -15 6
-17 5 -120 -2 -120 -4 0 -3 -8 2 -18 6 -10 6 -24 1 -32 -5 -8 -6 -18 -3 -22 4
-8 5 -44 2 -158 0 -8 1 -71 1 -140 1 -69 1 -130 0 -135 -2 -6 -2 -14 0 -20 1
-5 2 -32 3 -60 l2 -49 833 -1 c733 0 832 2 833 15 4 74 3 294 -2 301 -3 5
-285 10 -654 11 l-650 3 -1 335 c0 184 1 340 3 345 2 7 175 10 503 10 330 0
501 3 502 10 0 5 2 79 3 163 l1 152 -506 0 -505 0 0 298 0 297 630 0 c347 0
634 4 640 9 11 9 11 303 1 314 -8 7 -1615 9 -1626 2z"/>
<path d="M26627 15852 c-12 -2 -14 -8 -7 -20 7 -15 20 -46 25 -62 1 -3 9 -22
18 -44 9 -21 17 -41 17 -43 0 -6 28 -71 41 -95 5 -10 9 -25 9 -33 0 -8 5 -15
12 -15 6 0 9 -3 5 -6 -5 -5 8 -40 58 -159 7 -16 34 -84 60 -150 26 -66 54
-135 62 -154 8 -18 16 -39 17 -45 1 -6 6 -18 11 -26 5 -8 10 -19 11 -25 2 -10
82 -209 109 -270 7 -16 23 -57 35 -90 13 -33 27 -64 32 -70 4 -5 8 -15 8 -22
0 -7 8 -32 19 -56 10 -23 28 -67 40 -97 12 -30 26 -65 32 -77 5 -13 14 -34 19
-48 6 -14 15 -37 21 -52 7 -16 15 -37 19 -48 5 -11 17 -41 29 -67 12 -26 21
-54 21 -62 0 -8 4 -17 9 -20 5 -3 12 -18 16 -33 3 -15 17 -50 29 -78 12 -27
28 -66 35 -85 13 -35 23 -60 47 -115 7 -16 18 -44 24 -62 6 -17 19 -33 28 -35
15 -3 313 -3 350 1 6 0 12 9 12 19 0 10 3 22 8 26 4 4 7 11 8 14 1 6 15 45 31
82 3 8 7 17 8 20 1 3 6 16 12 30 6 14 20 48 30 75 11 28 24 59 28 70 4 11 7
23 7 28 -1 4 2 7 8 7 6 0 9 3 8 8 -2 7 68 189 100 261 8 18 15 39 15 47 0 8 4
14 8 14 4 0 10 12 14 28 3 15 13 41 20 57 26 56 47 110 51 129 2 11 9 23 16
28 7 4 10 8 6 8 -6 0 46 137 84 220 6 14 13 30 14 35 4 17 37 99 144 360 56
138 102 255 104 260 1 6 7 19 12 30 6 11 21 49 34 85 13 36 30 75 38 88 8 12
11 22 8 22 -4 0 -1 12 7 28 17 31 65 150 69 171 2 11 -31 14 -180 15 -112 1
-187 -3 -192 -9 -7 -8 -118 -286 -152 -380 -6 -16 -16 -33 -22 -37 -6 -4 -8
-8 -4 -8 7 0 -17 -72 -42 -125 -5 -11 -39 -96 -75 -190 -132 -339 -176 -450
-185 -470 -5 -11 -32 -81 -60 -155 -47 -122 -63 -161 -90 -225 -5 -11 -23 -59
-42 -107 -18 -49 -36 -88 -41 -88 -7 0 -21 29 -27 55 -1 6 -7 19 -13 30 -6 11
-12 22 -12 25 0 3 -20 55 -44 115 -23 61 -46 119 -51 130 -4 11 -12 31 -18 45
-6 14 -37 90 -68 170 -84 218 -145 373 -154 395 -18 40 -81 200 -85 215 -2 8
-31 83 -64 165 -34 83 -61 156 -61 163 0 6 -5 12 -11 12 -5 0 -8 4 -5 8 3 5
-6 32 -19 60 -13 29 -24 56 -24 60 0 7 -18 50 -47 117 l-13 29 -173 1 c-96 0
-182 -1 -191 -3z"/>
<path d="M16397 12084 c-3 -4 -22 -8 -43 -10 -325 -31 -627 -195 -829 -449
-22 -27 -43 -51 -47 -53 -5 -2 -8 -8 -8 -14 0 -5 -13 -28 -28 -51 -56 -84
-121 -247 -137 -347 -4 -25 -9 -54 -12 -65 -2 -11 -6 -52 -8 -92 -1 -39 -6
-76 -10 -82 -3 -6 -3 -11 2 -11 4 0 8 -30 9 -68 6 -391 282 -793 668 -972 77
-35 198 -78 241 -85 11 -2 31 -6 45 -9 62 -14 135 -19 265 -19 164 0 224 6
355 38 30 8 113 36 145 50 22 10 42 19 45 20 18 4 160 85 170 95 3 3 21 17 40
30 65 45 167 143 227 218 21 26 41 49 46 50 4 2 7 8 7 12 0 5 18 38 41 74 22
36 42 71 43 78 2 7 11 30 20 50 9 21 15 39 14 41 -2 2 2 10 8 18 7 8 15 30 20
49 4 19 9 40 10 45 23 78 32 179 29 315 -1 85 -6 168 -9 184 -27 117 -35 146
-41 155 -3 6 -8 21 -10 32 -3 12 -13 39 -25 60 -11 22 -17 39 -14 39 3 0 -4
13 -15 29 -12 16 -21 32 -21 36 0 7 -74 117 -104 154 -43 52 -220 221 -232
221 -5 0 -64 40 -74 50 -5 5 -76 44 -110 61 -120 59 -289 104 -428 114 -24 2
-46 6 -49 8 -2 3 -18 1 -34 -3 -16 -5 -29 -5 -29 -2 0 9 -78 8 -86 -1 -4 -3
-14 -2 -24 3 -10 5 -20 7 -23 4z m263 -338 c232 -39 441 -175 576 -376 25 -37
74 -130 79 -150 1 -3 7 -25 14 -50 28 -95 37 -160 35 -261 -2 -126 -18 -215
-56 -307 -6 -15 -12 -29 -12 -32 -3 -17 -82 -141 -109 -173 -18 -19 -39 -44
-48 -54 -57 -64 -148 -132 -239 -178 -69 -35 -160 -66 -171 -59 -5 3 -9 1 -9
-4 0 -5 -6 -9 -12 -9 -7 -1 -38 -5 -68 -9 -112 -16 -342 -1 -385 24 -5 4 -19
8 -30 9 -26 4 -189 83 -193 95 -2 4 -10 8 -17 8 -19 0 -195 175 -231 230 -34
52 -88 161 -99 200 0 3 -4 14 -8 25 -27 82 -39 257 -25 365 26 191 129 376
289 516 37 32 127 92 149 99 11 4 20 11 20 16 0 5 6 9 14 9 7 0 31 8 52 17 22
9 41 17 44 18 45 11 161 35 180 37 45 6 214 2 260 -6z"/>
<path d="M21205 12082 c-3 -3 -17 -7 -32 -8 -108 -11 -167 -28 -272 -76 -102
-46 -211 -139 -266 -228 -33 -53 -76 -156 -67 -164 3 -3 1 -6 -5 -6 -11 0 -15
-268 -3 -275 5 -3 11 -23 15 -45 13 -75 92 -200 162 -256 41 -33 179 -114 194
-114 5 0 17 -4 27 -9 46 -23 179 -72 207 -76 11 -2 34 -8 50 -15 17 -6 31 -11
32 -11 2 0 8 -1 15 -3 24 -7 103 -27 123 -30 40 -8 188 -66 229 -90 105 -63
158 -142 158 -235 1 -106 -22 -162 -97 -236 -45 -44 -124 -94 -158 -99 -7 -1
-17 -4 -22 -8 -19 -12 -98 -20 -190 -19 -81 1 -160 6 -160 11 0 1 -11 4 -25 5
-27 4 -46 9 -70 17 -8 3 -36 13 -62 23 -61 21 -181 100 -236 155 l-42 42 -110
-108 c-61 -59 -110 -114 -110 -120 0 -34 180 -175 301 -236 35 -18 66 -33 69
-33 3 -1 12 -4 20 -7 99 -34 200 -59 270 -66 77 -7 275 -6 335 1 334 41 580
241 639 520 14 70 12 312 -4 312 -1 0 -4 13 -6 28 -3 15 -19 54 -35 85 -79
146 -154 206 -376 302 -22 10 -44 16 -47 13 -3 -4 -6 -1 -6 5 0 7 -3 11 -7 10
-5 -1 -46 10 -93 24 -47 15 -139 41 -205 59 -66 17 -124 36 -129 40 -6 5 -17
9 -25 9 -35 0 -145 62 -196 111 -30 28 -54 54 -53 58 1 3 -5 20 -12 36 -21 50
-19 137 4 186 36 76 136 157 214 174 12 3 32 8 45 11 71 19 275 7 305 -18 6
-6 12 -8 12 -4 0 24 199 -88 241 -136 9 -10 19 -18 23 -18 4 0 58 50 121 112
l114 112 -42 39 c-90 85 -257 177 -382 210 -114 31 -281 51 -291 36 -2 -3 -22
-3 -44 1 -21 4 -42 5 -45 2z"/>
<path d="M12997 12043 c-2 -5 -3 -514 -3 -1133 l1 -1125 178 -1 c98 -1 180 2
182 6 3 4 5 48 5 96 0 49 0 107 0 129 1 22 1 54 1 70 0 17 0 73 0 125 0 52 0
102 0 110 -1 8 -1 29 0 45 1 17 1 37 0 45 0 8 0 42 0 75 1 33 1 69 1 80 -6
194 -5 205 21 205 34 1 984 1 1057 1 l65 -1 0 -493 -1 -494 181 1 180 1 2
1133 1 1132 -182 0 -182 0 0 -475 c1 -261 -1 -476 -4 -476 -3 -1 -259 -2 -569
-3 -557 -2 -563 -1 -571 19 -4 11 -4 31 -1 45 4 14 6 36 4 50 -1 14 -2 50 -2
80 0 30 0 64 -1 75 0 11 1 47 1 80 1 33 1 70 1 83 -1 23 -2 104 -1 150 0 30 0
135 -1 167 -1 67 2 140 6 146 2 4 0 19 -6 33 l-10 26 -174 0 c-96 0 -176 -3
-179 -7z"/>
<path d="M18166 11313 c2 -722 3 -766 23 -838 5 -19 7 -35 4 -35 -3 0 -1 -6 4
-12 6 -7 13 -26 17 -42 10 -40 78 -176 88 -176 4 0 8 -5 8 -11 0 -37 174 -214
281 -285 111 -75 221 -118 379 -149 87 -18 356 -7 417 16 13 5 23 7 23 4 0 -5
114 37 177 67 42 19 152 90 190 122 32 27 123 116 123 121 0 4 14 22 55 69 12
14 33 50 54 91 8 17 18 32 21 35 12 8 70 187 75 230 3 22 7 58 10 80 2 23 7
45 10 50 3 5 1 11 -4 14 -5 3 -5 21 -1 41 5 20 4 38 -2 41 -5 3 -5 11 0 17 4
7 7 23 5 37 -6 41 -5 139 2 150 3 5 2 18 -4 27 -5 11 -6 36 -1 61 4 23 4 45
-1 48 -4 2 -4 16 1 29 6 15 6 27 -1 30 -5 4 -6 12 -2 18 10 15 10 38 2 57 -4
8 -4 34 1 58 4 23 4 45 -1 48 -4 2 -4 16 1 29 6 16 6 27 -1 31 -6 3 -6 11 -1
17 4 7 7 23 5 37 -6 41 -5 139 2 150 3 5 2 18 -4 27 -5 11 -6 36 -1 61 4 23 4
45 -1 48 -4 2 -4 16 1 29 6 15 6 27 -1 30 -5 4 -6 12 -2 18 10 15 10 38 2 57
-4 8 -4 34 1 57 4 24 5 45 2 48 -9 8 -10 45 -1 45 4 0 5 9 2 20 -5 19 -14 20
-187 20 l-182 0 0 -722 c-1 -650 -3 -730 -18 -787 -19 -70 -53 -148 -73 -169
-7 -7 -13 -17 -13 -22 0 -13 -128 -143 -167 -169 -46 -32 -146 -79 -179 -86
-215 -43 -381 -9 -531 106 -58 45 -143 139 -143 158 0 6 -4 11 -9 11 -17 0
-70 138 -85 220 -2 14 -5 348 -5 743 l-1 717 -183 0 -183 0 2 -737z"/>
<path d="M22570 10917 l0 -1133 828 0 c455 1 832 4 838 8 6 4 9 28 7 55 -4 63
-4 62 0 106 2 20 0 37 -5 37 -5 0 -6 5 -2 12 12 19 12 87 0 97 -6 4 -301 8
-656 8 l-645 -1 -1 346 c0 342 0 346 20 350 12 2 238 3 504 2 265 0 483 2 483
5 4 17 5 298 1 308 -3 9 -118 12 -470 12 -257 0 -483 0 -503 1 l-35 0 0 298 1
297 620 2 c341 0 628 1 638 2 15 1 17 16 17 161 l0 160 -820 0 -820 0 0 -1133z"/>
</g>
</svg>
