<?xml version="1.0" standalone="no"?>
<!DOCTYPE svg PUBLIC "-//W3C//DTD SVG 20010904//EN"
 "http://www.w3.org/TR/2001/REC-SVG-20010904/DTD/svg10.dtd">
<svg version="1.0" xmlns="http://www.w3.org/2000/svg"
 width="72.000000pt" height="72.000000pt" viewBox="0 0 72.000000 72.000000"
 preserveAspectRatio="xMidYMid meet">
<metadata>
Created by potrace 1.14, written by Peter Selinger 2001-2017
</metadata>
<g transform="translate(0.000000,72.000000) scale(0.100000,-0.100000)"
fill="#000000" stroke="none">
<path d="M278 626 l-78 -45 -1 27 c-1 15 -1 33 0 40 1 6 -2 12 -7 12 -18 0
-31 -25 -34 -65 -3 -38 -6 -41 -80 -83 -56 -32 -78 -50 -78 -64 0 -19 2 -19
43 4 275 158 318 180 325 173 4 -3 8 -118 9 -253 1 -136 2 -257 2 -269 1 -14
7 -23 16 -23 12 0 15 18 15 100 l0 100 114 0 113 0 -1 -100 c-1 -89 1 -100 17
-100 16 0 17 15 17 185 0 102 3 185 6 185 3 0 14 -5 25 -10 16 -9 19 -7 19 9
0 14 -25 33 -91 70 -51 28 -96 51 -100 51 -5 0 -9 5 -9 10 0 6 -4 10 -9 10 -5
0 -40 18 -77 40 -38 22 -71 40 -74 40 -3 0 -40 -20 -82 -44z m334 -138 c26
-18 27 -22 25 -95 l-2 -77 -100 -1 c-55 -1 -106 1 -112 3 -10 3 -13 41 -13
144 l0 140 88 -48 c48 -26 99 -55 114 -66z"/>
<path d="M295 554 c-22 -13 -86 -49 -143 -79 l-102 -56 0 -170 0 -170 148 3
147 3 1 105 c0 58 -2 110 -3 116 -2 6 -31 10 -71 10 -55 -1 -67 -4 -70 -19 -3
-14 5 -17 52 -17 l55 0 -1 -80 c0 -51 -5 -80 -12 -81 -18 -1 -139 -1 -176 0
l-36 1 1 137 0 137 129 73 c114 63 150 94 128 107 -4 2 -25 -7 -47 -20z"/>
</g>
</svg>
