<svg width="24" height="24" viewBox="0 0 24 24" fill="none" xmlns="http://www.w3.org/2000/svg">
<g clip-path="url(#clip0)">
<path d="M0.835849 7.25385C1.29757 7.25385 1.6717 6.87961 1.6717 6.418V2.85417L7.05512 8.23647C7.21839 8.39963 7.43225 8.48121 7.64612 8.48121C7.8601 8.48121 8.07407 8.39963 8.23723 8.23636C8.56366 7.90993 8.56366 7.38068 8.23712 7.05436L2.85348 1.67194H6.41809C6.8797 1.67194 7.25394 1.2977 7.25394 0.836093C7.25394 0.374481 6.87981 0.000244141 6.41809 0.000244141H0.835849C0.374126 0.000244141 0 0.374481 0 0.836093V6.41811C0 6.87961 0.374126 7.25385 0.835849 7.25385Z" fill="#A1BA45"/>
<path d="M23.1642 16.7462C22.7024 16.7462 22.3283 17.1205 22.3283 17.5821V21.146L16.7792 15.5969C16.4526 15.2704 15.9235 15.2704 15.5971 15.5969C15.2706 15.9233 15.2706 16.4526 15.5971 16.7789L21.1461 22.3279H17.5824C17.1206 22.3279 16.7465 22.7021 16.7465 23.1638C16.7465 23.6254 17.1206 23.9996 17.5824 23.9996H23.1643C23.626 23.9996 24.0001 23.6254 24.0001 23.1638V17.5821C24 17.1205 23.6258 16.7462 23.1642 16.7462Z" fill="#A1BA45"/>
<path d="M7.22083 15.5969L1.67225 21.1459V17.5821C1.67225 17.1205 1.29812 16.7462 0.836398 16.7462C0.374675 16.7462 0.000549316 17.1205 0.000549316 17.5821V23.164C0.000549316 23.6256 0.374675 23.9998 0.836398 23.9998H6.41808C6.87969 23.9998 7.25393 23.6256 7.25393 23.164C7.25393 22.7024 6.87981 22.3281 6.41808 22.3281H2.85425L8.40295 16.7789C8.72937 16.4525 8.72937 15.9232 8.40283 15.5968C8.07663 15.2705 7.54737 15.2705 7.22083 15.5969Z" fill="#A1BA45"/>
<path d="M23.1642 0.000244141H17.5822C17.1205 0.000244141 16.7464 0.374481 16.7464 0.836093C16.7464 1.2977 17.1205 1.67194 17.5822 1.67194H21.1462L15.7635 7.05492C15.4371 7.38134 15.4371 7.9106 15.7637 8.23703C15.9268 8.40019 16.1408 8.48177 16.3547 8.48177C16.5685 8.48177 16.7825 8.40008 16.9458 8.23692L22.3284 2.85394V6.418C22.3284 6.87961 22.7025 7.25385 23.1643 7.25385C23.626 7.25385 24.0001 6.87961 24.0001 6.418V0.836093C24 0.37437 23.6258 0.000244141 23.1642 0.000244141Z" fill="#A1BA45"/>
</g>
<defs>
<clipPath id="clip0">
<rect width="24" height="24" fill="white"/>
</clipPath>
</defs>
</svg>
