<svg width="15" height="12" viewBox="0 0 15 12" fill="none" xmlns="http://www.w3.org/2000/svg">
<path d="M0.333344 5.77142C0.333344 5.45501 0.568472 5.19351 0.873535 5.15213L0.958343 5.14642L13.4583 5.14642C13.8035 5.14642 14.0833 5.42625 14.0833 5.77142C14.0833 6.08784 13.8482 6.34933 13.5432 6.39072L13.4583 6.39642L0.958343 6.39642C0.613166 6.39642 0.333344 6.1166 0.333344 5.77142Z" fill="white"/>
<path d="M7.97585 1.19399C7.73125 0.950437 7.7304 0.55471 7.97395 0.310107C8.19536 0.0877412 8.54253 0.0668222 8.7876 0.24784L8.85783 0.308204L13.8995 5.3282C14.1225 5.55028 14.1428 5.8987 13.9604 6.14377L13.8995 6.21395L8.85787 11.2348C8.61328 11.4784 8.21756 11.4775 7.97398 11.233C7.75255 11.0106 7.7331 10.6633 7.91515 10.419L7.97581 10.3491L12.5725 5.77085L7.97585 1.19399Z" fill="white"/>
</svg>
