<svg width="25" height="30" viewBox="0 0 25 30" fill="none" xmlns="http://www.w3.org/2000/svg">
<path fill-rule="evenodd" clip-rule="evenodd" d="M12.8646 10.3959C11.4573 10.3959 10.3125 11.5407 10.3125 12.9494C10.3125 14.3567 11.4573 15.5 12.8646 15.5C14.2719 15.5 15.4167 14.3567 15.4167 12.9494C15.4167 11.5407 14.2719 10.3959 12.8646 10.3959M12.8646 17.6875C10.2512 17.6875 8.125 15.5627 8.125 12.9494C8.125 10.3346 10.2512 8.20837 12.8646 8.20837C15.4779 8.20837 17.6042 10.3346 17.6042 12.9494C17.6042 15.5627 15.4779 17.6875 12.8646 17.6875" fill="#A1BA45"/>
<mask id="mask0" mask-type="alpha" maskUnits="userSpaceOnUse" x="0" y="0" width="25" height="30">
<path fill-rule="evenodd" clip-rule="evenodd" d="M0.833008 0.916687H24.8948V29.3542H0.833008V0.916687Z" fill="white"/>
</mask>
<g mask="url(#mask0)">
<path fill-rule="evenodd" clip-rule="evenodd" d="M12.8633 3.10419C7.43537 3.10419 3.01953 7.56231 3.01953 13.0398C3.01953 20.0092 11.2212 26.7992 12.8633 27.1609C14.5054 26.7977 22.707 20.0077 22.707 13.0398C22.707 7.56231 18.2912 3.10419 12.8633 3.10419V3.10419ZM12.8633 29.3542C10.247 29.3542 0.832031 21.2575 0.832031 13.0398C0.832031 6.35481 6.22932 0.916687 12.8633 0.916687C19.4972 0.916687 24.8945 6.35481 24.8945 13.0398C24.8945 21.2575 15.4795 29.3542 12.8633 29.3542V29.3542Z" fill="#A1BA45"/>
</g>
</svg>
