<svg width="180" height="59" viewBox="0 0 180 59" fill="none" xmlns="http://www.w3.org/2000/svg">
<path fill-rule="evenodd" clip-rule="evenodd" d="M8.42817 27.465V55.2942H30.7517V39.0589L20.1568 39.0589V35.5294H34.3636L34.3636 35.7647L34.3636 39.0589L34.3636 58.8236L33.6411 58.8236L30.7517 58.8236L8.42817 58.8236H4.81628V25.4118H4.87559L34.3686 9.06763L34.3693 12.949L8.42817 27.465Z" fill="white"/>
<path fill-rule="evenodd" clip-rule="evenodd" d="M35.9985 0.000679741L35.9973 0L35.9961 0.00204348L19.6765 9.22821V0.437036L16.3054 2.90202V11.134L0 20.3522L1.41673e-06 24.0894L35.8496 3.71765L37.7346 4.77781V58.8236H41.1057V39.0588H63.711V58.8222H67.0821V21.2829L71.9988 24.0481L71.9988 20.2863L36.0008 0.00195861L35.9997 3.7564e-05L35.9985 0.000679741ZM63.711 19.387L41.1057 6.67372V35.5294H63.711V19.387Z" fill="#A1BA45"/>
<path d="M89.9203 27.0988H94.9962V32.1576C94.9423 32.2235 94.858 32.319 94.7435 32.4442C94.6356 32.5627 94.3862 32.7768 93.9952 33.0864C93.611 33.3894 93.1964 33.6562 92.7515 33.8867C92.3133 34.1107 91.7336 34.3182 91.0123 34.5092C90.2978 34.6936 89.5563 34.7859 88.7878 34.7859C86.6172 34.7859 84.7972 34.081 83.3277 32.6714C81.8581 31.2618 81.1234 29.5393 81.1234 27.5039C81.1234 25.4685 81.8581 23.746 83.3277 22.3364C84.7972 20.9268 86.6172 20.222 88.7878 20.222C89.5226 20.222 90.227 20.3175 90.9011 20.5085C91.5752 20.6929 92.1313 20.9202 92.5695 21.1903C93.0144 21.4603 93.402 21.7271 93.7323 21.9906C94.0626 22.2541 94.3053 22.4813 94.4603 22.6723L94.6828 22.949L93.2369 24.3718C93.1964 24.3191 93.1357 24.2466 93.0548 24.1544C92.9807 24.0556 92.8054 23.8811 92.5291 23.6308C92.2527 23.3804 91.9561 23.1664 91.6392 22.9885C91.3224 22.8041 90.9079 22.6361 90.3955 22.4846C89.89 22.3265 89.3541 22.2475 88.7878 22.2475C87.2846 22.2475 86.0106 22.758 84.9657 23.779C83.9209 24.7934 83.3984 26.035 83.3984 27.5039C83.3984 28.9728 83.9175 30.2178 84.9556 31.2388C86.0005 32.2597 87.2779 32.7702 88.7878 32.7702C89.2867 32.7702 89.7619 32.7241 90.2135 32.6319C90.6719 32.5331 91.046 32.4145 91.3359 32.2762C91.6258 32.1313 91.8786 31.9897 92.0943 31.8513C92.3167 31.7064 92.4751 31.5879 92.5695 31.4956L92.7212 31.3474V29.1243H89.9203V27.0988Z" fill="white"/>
<path d="M101.094 31.6439C101.856 32.3948 102.752 32.7702 103.784 32.7702C104.822 32.7702 105.719 32.3915 106.473 31.634C107.235 30.8765 107.616 29.974 107.616 28.9267V20.4196H109.901V28.9267C109.901 30.5471 109.305 31.9304 108.112 33.0765C106.925 34.2161 105.483 34.7859 103.784 34.7859C102.092 34.7859 100.649 34.2128 99.4562 33.0667C98.2698 31.9205 97.6766 30.5405 97.6766 28.9267V20.4196H99.9617V28.9267C99.9617 29.9806 100.339 30.8863 101.094 31.6439Z" fill="white"/>
<path d="M120.246 30.5372C120.246 30.1025 120.104 29.7402 119.821 29.4504C119.538 29.154 119.17 28.9234 118.719 28.7587C118.274 28.5875 117.778 28.436 117.232 28.3042C116.686 28.1659 116.14 27.9979 115.594 27.8003C115.048 27.6027 114.55 27.3656 114.098 27.0889C113.653 26.8123 113.289 26.4204 113.006 25.9132C112.723 25.3994 112.581 24.7835 112.581 24.0655C112.581 22.9721 113.009 22.0598 113.865 21.3286C114.721 20.5908 115.881 20.222 117.344 20.222C117.883 20.222 118.399 20.2878 118.891 20.4196C119.39 20.5447 119.801 20.6962 120.124 20.8741C120.455 21.0454 120.741 21.2199 120.984 21.3978C121.233 21.569 121.415 21.7172 121.53 21.8424L121.692 22.04L120.246 23.4628C120.219 23.4364 120.178 23.3936 120.124 23.3343C120.077 23.2685 119.963 23.1697 119.781 23.0379C119.605 22.8996 119.413 22.7777 119.204 22.6723C119.002 22.5604 118.732 22.4616 118.395 22.3759C118.065 22.2903 117.714 22.2475 117.344 22.2475C116.595 22.2475 115.992 22.4286 115.534 22.7909C115.082 23.1532 114.856 23.5781 114.856 24.0655C114.856 24.5002 114.998 24.8658 115.281 25.1622C115.564 25.4587 115.928 25.6925 116.373 25.8638C116.825 26.0284 117.323 26.1799 117.869 26.3183C118.415 26.45 118.961 26.6147 119.508 26.8123C120.054 27.0033 120.549 27.2371 120.994 27.5138C121.446 27.7905 121.813 28.1857 122.096 28.6995C122.379 29.2132 122.521 29.8258 122.521 30.5372C122.521 31.7888 122.062 32.8098 121.146 33.6002C120.229 34.3906 118.961 34.7859 117.344 34.7859C116.683 34.7859 116.053 34.7101 115.453 34.5586C114.86 34.4005 114.371 34.2161 113.987 34.0053C113.602 33.7879 113.269 33.5706 112.986 33.3532C112.703 33.1358 112.497 32.9547 112.369 32.8098L112.167 32.5627L113.613 31.1498C113.64 31.1894 113.683 31.2486 113.744 31.3277C113.811 31.4001 113.956 31.5319 114.179 31.7229C114.408 31.9073 114.654 32.072 114.917 32.2169C115.18 32.3553 115.527 32.4837 115.958 32.6023C116.397 32.7142 116.858 32.7702 117.344 32.7702C118.24 32.7702 118.948 32.5562 119.467 32.128C119.986 31.6998 120.246 31.1696 120.246 30.5372Z" fill="white"/>
<path d="M123.552 34.5883L129.559 20.4196H131.834L137.84 34.5883H135.464L133.907 30.8435H127.486L125.929 34.5883H123.552ZM130.701 22.949L128.315 28.818H133.077L130.701 22.949Z" fill="white"/>
<path d="M140.648 34.5883V20.4196H146.755C148.097 20.4196 149.209 20.8379 150.092 21.6744C150.975 22.511 151.417 23.5451 151.417 24.7769C151.417 25.3566 151.316 25.9 151.113 26.4072C150.911 26.9078 150.668 27.303 150.385 27.5928C150.102 27.8827 149.819 28.1363 149.536 28.3536C149.253 28.571 149.01 28.7192 148.808 28.7983L148.515 28.9267L151.831 34.5883H149.344L146.24 29.1243H142.923V34.5883H140.648ZM148.444 26.4368C148.902 25.9889 149.132 25.4356 149.132 24.7769C149.132 24.1116 148.902 23.5583 148.444 23.117C147.992 22.6691 147.429 22.4451 146.755 22.4451H142.923V27.0988H146.755C147.429 27.0988 147.992 26.8782 148.444 26.4368Z" fill="white"/>
<path d="M156.905 32.5627H165.085V34.5883H154.63V20.4196H164.883V22.4451H156.905V26.1898H163.225V28.2153H156.905V32.5627Z" fill="white"/>
<path d="M172.032 34.5883L166.329 20.4196H168.716L173.165 31.7525L177.624 20.4196H180L174.307 34.5883H172.032Z" fill="white"/>
<path d="M92.9226 44.1843V58.353H90.6475V52.1776H83.4988V58.353H81.2237V44.1843H83.4988V50.162H90.6475V44.1843H92.9226Z" fill="white"/>
<path d="M99.3365 47.5437C98.2984 48.5581 97.7793 49.7997 97.7793 51.2686C97.7793 52.7375 98.2984 53.9825 99.3365 55.0035C100.381 56.0245 101.655 56.535 103.159 56.535C104.669 56.535 105.943 56.0245 106.981 55.0035C108.026 53.9825 108.548 52.7375 108.548 51.2686C108.548 49.7997 108.026 48.5581 106.981 47.5437C105.943 46.5227 104.669 46.0122 103.159 46.0122C101.655 46.0122 100.381 46.5227 99.3365 47.5437ZM97.7085 56.4361C96.239 55.0265 95.5042 53.304 95.5042 51.2686C95.5042 49.2332 96.239 47.5107 97.7085 46.1011C99.178 44.6915 100.995 43.9867 103.159 43.9867C105.329 43.9867 107.149 44.6915 108.619 46.1011C110.088 47.5107 110.823 49.2332 110.823 51.2686C110.823 53.304 110.088 55.0265 108.619 56.4361C107.149 57.8458 105.329 58.5506 103.159 58.5506C100.995 58.5506 99.178 57.8458 97.7085 56.4361Z" fill="white"/>
<path d="M116.941 55.4086C117.703 56.1595 118.599 56.535 119.63 56.535C120.669 56.535 121.565 56.1562 122.32 55.3987C123.082 54.6412 123.463 53.7388 123.463 52.6914V44.1843H125.748V52.6914C125.748 54.3118 125.151 55.6951 123.958 56.8412C122.772 57.9808 121.329 58.5506 119.63 58.5506C117.938 58.5506 116.496 57.9775 115.303 56.8314C114.116 55.6852 113.523 54.3052 113.523 52.6914V44.1843H115.808V52.6914C115.808 53.7453 116.186 54.6511 116.941 55.4086Z" fill="white"/>
<path d="M136.092 54.302C136.092 53.8672 135.951 53.5049 135.668 53.2151C135.384 52.9187 135.017 52.6881 134.565 52.5235C134.121 52.3522 133.625 52.2007 133.079 52.069C132.533 51.9306 131.987 51.7627 131.441 51.565C130.895 51.3674 130.396 51.1303 129.945 50.8537C129.5 50.577 129.136 50.1851 128.852 49.6779C128.569 49.1641 128.428 48.5482 128.428 47.8302C128.428 46.7368 128.856 45.8245 129.712 45.0933C130.568 44.3556 131.727 43.9867 133.19 43.9867C133.73 43.9867 134.245 44.0526 134.737 44.1843C135.236 44.3095 135.647 44.461 135.971 44.6388C136.301 44.8101 136.588 44.9846 136.83 45.1625C137.08 45.3337 137.262 45.4819 137.376 45.6071L137.538 45.8047L136.092 47.2275C136.065 47.2012 136.025 47.1583 135.971 47.0991C135.924 47.0332 135.809 46.9344 135.627 46.8026C135.452 46.6643 135.26 46.5425 135.051 46.4371C134.849 46.3251 134.579 46.2263 134.242 46.1406C133.912 46.055 133.561 46.0122 133.19 46.0122C132.442 46.0122 131.839 46.1933 131.38 46.5556C130.929 46.9179 130.703 47.3428 130.703 47.8302C130.703 48.265 130.844 48.6305 131.128 48.927C131.411 49.2234 131.775 49.4572 132.22 49.6285C132.671 49.7931 133.17 49.9446 133.716 50.083C134.262 50.2147 134.808 50.3794 135.354 50.577C135.9 50.768 136.396 51.0019 136.84 51.2785C137.292 51.5552 137.66 51.9504 137.943 52.4642C138.226 52.978 138.367 53.5906 138.367 54.302C138.367 55.5535 137.909 56.5745 136.992 57.3649C136.075 58.1554 134.808 58.5506 133.19 58.5506C132.53 58.5506 131.899 58.4748 131.299 58.3233C130.706 58.1652 130.218 57.9808 129.833 57.77C129.449 57.5526 129.115 57.3353 128.832 57.1179C128.549 56.9005 128.344 56.7194 128.215 56.5745L128.013 56.3275L129.459 54.9145C129.486 54.9541 129.53 55.0133 129.591 55.0924C129.658 55.1648 129.803 55.2966 130.025 55.4876C130.255 55.6721 130.501 55.8367 130.764 55.9816C131.026 56.12 131.374 56.2484 131.805 56.367C132.243 56.479 132.705 56.535 133.19 56.535C134.087 56.535 134.795 56.3209 135.314 55.8927C135.833 55.4646 136.092 54.9343 136.092 54.302Z" fill="white"/>
<path d="M143.332 56.3275H151.513V58.353H141.057V44.1843H151.31V46.2098H143.332V49.9545H149.652V51.98H143.332V56.3275Z" fill="white"/>
</svg>
