<svg width="180" height="59" viewBox="0 0 180 59" fill="none" xmlns="http://www.w3.org/2000/svg">
<path fill-rule="evenodd" clip-rule="evenodd" d="M8.42816 27.4647V55.2939H30.7517V39.0586L20.1568 39.0586V35.5292H34.3636L34.3636 35.7645L34.3636 39.0586L34.3636 58.8233L33.6411 58.8233L30.7517 58.8233L8.42816 58.8233H4.81627V25.4115H4.87558L34.3686 9.06737L34.3692 12.9487L8.42816 27.4647Z" fill="#282728"/>
<path fill-rule="evenodd" clip-rule="evenodd" d="M35.9985 0.000686659L35.9973 6.86646e-06L35.9961 0.0020505L19.6765 9.22821V0.437043L16.3054 2.90203V11.134L-3.30783e-05 20.3522L-3.16052e-05 24.0894L35.8495 3.71765L37.7346 4.77781V58.8236H41.1057V39.0589H63.711V58.8222H67.082V21.2829L71.9988 24.0481V20.2863L36.0008 0.00196542L35.9996 4.4533e-05L35.9985 0.000686659ZM63.711 19.387L41.1057 6.67372V35.5294H63.711V19.387Z" fill="#A1BA45"/>
<path d="M89.9203 27.0985H94.9962V32.1573C94.9423 32.2232 94.858 32.3187 94.7435 32.4439C94.6356 32.5624 94.3862 32.7765 93.9952 33.0861C93.611 33.3891 93.1964 33.6559 92.7515 33.8864C92.3133 34.1104 91.7336 34.3179 91.0123 34.5089C90.2978 34.6933 89.5563 34.7856 88.7878 34.7856C86.6172 34.7856 84.7972 34.0808 83.3277 32.6711C81.8581 31.2615 81.1234 29.539 81.1234 27.5036C81.1234 25.4682 81.8581 23.7457 83.3277 22.3361C84.7972 20.9265 86.6172 20.2217 88.7878 20.2217C89.5226 20.2217 90.227 20.3172 90.9011 20.5082C91.5752 20.6927 92.1313 20.9199 92.5695 21.19C93.0144 21.46 93.402 21.7268 93.7323 21.9903C94.0626 22.2538 94.3053 22.481 94.4603 22.672L94.6828 22.9487L93.2369 24.3715C93.1964 24.3188 93.1357 24.2463 93.0548 24.1541C92.9807 24.0553 92.8054 23.8808 92.5291 23.6305C92.2527 23.3802 91.9561 23.1661 91.6392 22.9882C91.3224 22.8038 90.9079 22.6358 90.3955 22.4843C89.89 22.3262 89.3541 22.2472 88.7878 22.2472C87.2846 22.2472 86.0106 22.7577 84.9657 23.7787C83.9209 24.7931 83.3984 26.0347 83.3984 27.5036C83.3984 28.9725 83.9175 30.2175 84.9556 31.2385C86.0005 32.2594 87.2779 32.7699 88.7878 32.7699C89.2867 32.7699 89.7619 32.7238 90.2135 32.6316C90.6719 32.5328 91.046 32.4142 91.3359 32.2759C91.6258 32.131 91.8786 31.9894 92.0943 31.851C92.3167 31.7061 92.4751 31.5876 92.5695 31.4954L92.7212 31.3471V29.124H89.9203V27.0985Z" fill="#282728"/>
<path d="M101.094 31.6436C101.856 32.3945 102.752 32.7699 103.784 32.7699C104.822 32.7699 105.719 32.3912 106.473 31.6337C107.235 30.8762 107.616 29.9738 107.616 28.9264V20.4193H109.901V28.9264C109.901 30.5468 109.305 31.9301 108.112 33.0762C106.925 34.2158 105.483 34.7856 103.784 34.7856C102.092 34.7856 100.649 34.2125 99.4562 33.0664C98.2698 31.9202 97.6766 30.5402 97.6766 28.9264V20.4193H99.9617V28.9264C99.9617 29.9803 100.339 30.8861 101.094 31.6436Z" fill="#282728"/>
<path d="M120.246 30.5369C120.246 30.1022 120.104 29.7399 119.821 29.4501C119.538 29.1537 119.17 28.9231 118.719 28.7584C118.274 28.5872 117.778 28.4357 117.232 28.3039C116.686 28.1656 116.14 27.9976 115.594 27.8C115.048 27.6024 114.55 27.3653 114.098 27.0886C113.653 26.812 113.289 26.4201 113.006 25.9129C112.723 25.3991 112.581 24.7832 112.581 24.0652C112.581 22.9718 113.009 22.0595 113.865 21.3283C114.721 20.5906 115.881 20.2217 117.344 20.2217C117.883 20.2217 118.399 20.2875 118.891 20.4193C119.39 20.5444 119.801 20.6959 120.124 20.8738C120.455 21.0451 120.741 21.2196 120.984 21.3975C121.233 21.5687 121.415 21.7169 121.53 21.8421L121.692 22.0397L120.246 23.4625C120.219 23.4361 120.178 23.3933 120.124 23.334C120.077 23.2682 119.963 23.1694 119.781 23.0376C119.605 22.8993 119.413 22.7774 119.204 22.672C119.002 22.5601 118.732 22.4613 118.395 22.3756C118.065 22.29 117.714 22.2472 117.344 22.2472C116.595 22.2472 115.992 22.4283 115.534 22.7906C115.082 23.1529 114.856 23.5778 114.856 24.0652C114.856 24.4999 114.998 24.8655 115.281 25.1619C115.564 25.4584 115.928 25.6922 116.373 25.8635C116.825 26.0281 117.323 26.1796 117.869 26.318C118.415 26.4497 118.961 26.6144 119.508 26.812C120.054 27.003 120.549 27.2368 120.994 27.5135C121.446 27.7902 121.813 28.1854 122.096 28.6992C122.379 29.213 122.521 29.8255 122.521 30.5369C122.521 31.7885 122.062 32.8095 121.146 33.5999C120.229 34.3903 118.961 34.7856 117.344 34.7856C116.683 34.7856 116.053 34.7098 115.453 34.5583C114.86 34.4002 114.371 34.2158 113.987 34.005C113.602 33.7876 113.269 33.5703 112.986 33.3529C112.703 33.1355 112.497 32.9544 112.369 32.8095L112.167 32.5624L113.613 31.1495C113.64 31.1891 113.683 31.2483 113.744 31.3274C113.811 31.3998 113.956 31.5316 114.179 31.7226C114.408 31.907 114.654 32.0717 114.917 32.2166C115.18 32.355 115.527 32.4834 115.958 32.602C116.397 32.7139 116.858 32.7699 117.344 32.7699C118.24 32.7699 118.948 32.5559 119.467 32.1277C119.986 31.6995 120.246 31.1693 120.246 30.5369Z" fill="#282728"/>
<path d="M123.552 34.588L129.559 20.4193H131.834L137.84 34.588H135.464L133.907 30.8432H127.486L125.929 34.588H123.552ZM130.701 22.9487L128.315 28.8177H133.077L130.701 22.9487Z" fill="#282728"/>
<path d="M140.648 34.588V20.4193H146.755C148.097 20.4193 149.209 20.8376 150.092 21.6741C150.975 22.5107 151.417 23.5448 151.417 24.7766C151.417 25.3563 151.316 25.8997 151.113 26.4069C150.911 26.9075 150.668 27.3027 150.385 27.5925C150.102 27.8824 149.819 28.136 149.536 28.3533C149.253 28.5707 149.01 28.7189 148.808 28.798L148.515 28.9264L151.831 34.588H149.344L146.24 29.124H142.923V34.588H140.648ZM148.444 26.4365C148.902 25.9886 149.132 25.4353 149.132 24.7766C149.132 24.1113 148.902 23.558 148.444 23.1167C147.992 22.6688 147.429 22.4448 146.755 22.4448H142.923V27.0985H146.755C147.429 27.0985 147.992 26.8779 148.444 26.4365Z" fill="#282728"/>
<path d="M156.905 32.5624H165.085V34.588H154.63V20.4193H164.883V22.4448H156.905V26.1895H163.225V28.215H156.905V32.5624Z" fill="#282728"/>
<path d="M172.032 34.588L166.329 20.4193H168.716L173.165 31.7522L177.624 20.4193H180L174.307 34.588H172.032Z" fill="#282728"/>
<path d="M92.9226 44.184V58.3527H90.6475V52.1773H83.4988V58.3527H81.2237V44.184H83.4988V50.1617H90.6475V44.184H92.9226Z" fill="#282728"/>
<path d="M99.3365 47.5434C98.2984 48.5578 97.7793 49.7994 97.7793 51.2683C97.7793 52.7372 98.2984 53.9822 99.3365 55.0032C100.381 56.0242 101.655 56.5347 103.159 56.5347C104.669 56.5347 105.943 56.0242 106.981 55.0032C108.026 53.9822 108.548 52.7372 108.548 51.2683C108.548 49.7994 108.026 48.5578 106.981 47.5434C105.943 46.5224 104.669 46.0119 103.159 46.0119C101.655 46.0119 100.381 46.5224 99.3365 47.5434ZM97.7085 56.4358C96.239 55.0262 95.5042 53.3037 95.5042 51.2683C95.5042 49.2329 96.239 47.5104 97.7085 46.1008C99.178 44.6912 100.995 43.9864 103.159 43.9864C105.329 43.9864 107.149 44.6912 108.619 46.1008C110.088 47.5104 110.823 49.2329 110.823 51.2683C110.823 53.3037 110.088 55.0262 108.619 56.4358C107.149 57.8455 105.329 58.5503 103.159 58.5503C100.995 58.5503 99.178 57.8455 97.7085 56.4358Z" fill="#282728"/>
<path d="M116.941 55.4083C117.703 56.1592 118.599 56.5347 119.63 56.5347C120.669 56.5347 121.565 56.1559 122.32 55.3984C123.082 54.6409 123.463 53.7385 123.463 52.6911V44.184H125.748V52.6911C125.748 54.3115 125.151 55.6948 123.958 56.8409C122.772 57.9805 121.329 58.5503 119.63 58.5503C117.938 58.5503 116.496 57.9772 115.303 56.8311C114.116 55.6849 113.523 54.3049 113.523 52.6911V44.184H115.808V52.6911C115.808 53.7451 116.186 54.6508 116.941 55.4083Z" fill="#282728"/>
<path d="M136.092 54.3017C136.092 53.8669 135.951 53.5046 135.668 53.2148C135.384 52.9184 135.017 52.6878 134.565 52.5232C134.121 52.3519 133.625 52.2004 133.079 52.0687C132.533 51.9303 131.987 51.7624 131.441 51.5648C130.895 51.3671 130.396 51.13 129.945 50.8534C129.5 50.5767 129.136 50.1848 128.852 49.6776C128.569 49.1638 128.428 48.5479 128.428 47.8299C128.428 46.7365 128.856 45.8242 129.712 45.093C130.568 44.3553 131.727 43.9864 133.19 43.9864C133.73 43.9864 134.245 44.0523 134.737 44.184C135.236 44.3092 135.647 44.4607 135.971 44.6385C136.301 44.8098 136.588 44.9843 136.83 45.1622C137.08 45.3334 137.262 45.4816 137.376 45.6068L137.538 45.8044L136.092 47.2272C136.065 47.2009 136.025 47.158 135.971 47.0988C135.924 47.0329 135.809 46.9341 135.627 46.8023C135.452 46.664 135.26 46.5422 135.051 46.4368C134.849 46.3248 134.579 46.226 134.242 46.1403C133.912 46.0547 133.561 46.0119 133.19 46.0119C132.442 46.0119 131.839 46.193 131.38 46.5553C130.929 46.9176 130.703 47.3425 130.703 47.8299C130.703 48.2647 130.844 48.6302 131.128 48.9267C131.411 49.2231 131.775 49.4569 132.22 49.6282C132.671 49.7928 133.17 49.9443 133.716 50.0827C134.262 50.2144 134.808 50.3791 135.354 50.5767C135.9 50.7677 136.396 51.0016 136.84 51.2782C137.292 51.5549 137.66 51.9501 137.943 52.4639C138.226 52.9777 138.367 53.5903 138.367 54.3017C138.367 55.5532 137.909 56.5742 136.992 57.3646C136.075 58.1551 134.808 58.5503 133.19 58.5503C132.53 58.5503 131.899 58.4745 131.299 58.323C130.706 58.1649 130.218 57.9805 129.833 57.7697C129.449 57.5523 129.115 57.335 128.832 57.1176C128.549 56.9002 128.344 56.7191 128.215 56.5742L128.013 56.3272L129.459 54.9142C129.486 54.9538 129.53 55.0131 129.591 55.0921C129.658 55.1646 129.803 55.2963 130.025 55.4873C130.255 55.6718 130.501 55.8364 130.764 55.9813C131.026 56.1197 131.374 56.2481 131.805 56.3667C132.243 56.4787 132.705 56.5347 133.19 56.5347C134.087 56.5347 134.795 56.3206 135.314 55.8924C135.833 55.4643 136.092 54.934 136.092 54.3017Z" fill="#282728"/>
<path d="M143.332 56.3272H151.513V58.3527H141.057V44.184H151.31V46.2095H143.332V49.9542H149.652V51.9797H143.332V56.3272Z" fill="#282728"/>
</svg>
