<svg width="37" height="33" viewBox="0 0 37 33" fill="none" xmlns="http://www.w3.org/2000/svg">
<path fill-rule="evenodd" clip-rule="evenodd" d="M18.6282 19.4415C17.5132 19.4415 16.4015 19.0731 15.4715 18.3365L7.99653 12.3098C7.4582 11.8765 7.37486 11.0882 7.80653 10.5515C8.24153 10.0165 9.0282 9.93148 9.56486 10.3632L17.0332 16.3831C17.9715 17.1265 19.2932 17.1265 20.2382 16.3765L27.6315 10.3665C28.1682 9.92815 28.9549 10.0115 29.3915 10.5482C29.8265 11.0832 29.7449 11.8698 29.2099 12.3065L21.8032 18.3265C20.8665 19.0698 19.7465 19.4415 18.6282 19.4415" fill="#A1BA45"/>
<mask id="mask0" mask-type="alpha" maskUnits="userSpaceOnUse" x="0" y="0" width="37" height="33">
<path fill-rule="evenodd" clip-rule="evenodd" d="M0.666687 0.333008H36.4999V32.833H0.666687V0.333008Z" fill="white"/>
</mask>
<g mask="url(#mask0)">
<path fill-rule="evenodd" clip-rule="evenodd" d="M10.3982 30.333H26.7648C26.7682 30.3297 26.7815 30.333 26.7915 30.333C28.6932 30.333 30.3798 29.653 31.6732 28.3613C33.1748 26.8663 33.9998 24.718 33.9998 22.313V10.8663C33.9998 6.21134 30.9565 2.83301 26.7648 2.83301H10.4015C6.20984 2.83301 3.1665 6.21134 3.1665 10.8663V22.313C3.1665 24.718 3.99317 26.8663 5.49317 28.3613C6.7865 29.653 8.47484 30.333 10.3748 30.333H10.3982ZM10.3698 32.833C7.79817 32.833 5.5015 31.8997 3.72817 30.133C1.75317 28.163 0.666504 25.3863 0.666504 22.313V10.8663C0.666504 4.86134 4.8515 0.333008 10.4015 0.333008H26.7648C32.3148 0.333008 36.4998 4.86134 36.4998 10.8663V22.313C36.4998 25.3863 35.4132 28.163 33.4382 30.133C31.6665 31.898 29.3682 32.833 26.7915 32.833H26.7648H10.4015H10.3698Z" fill="#A1BA45"/>
</g>
</svg>
