<svg width="18" height="18" viewBox="0 0 18 18" fill="none" xmlns="http://www.w3.org/2000/svg">
<mask id="mask0" mask-type="alpha" maskUnits="userSpaceOnUse" x="1" y="1" width="16" height="16">
<path fill-rule="evenodd" clip-rule="evenodd" d="M1.50037 1.50015H16.8751V16.8748H1.50037V1.50015Z" />
</mask>
<g mask="url(mask0)">
<path fill-rule="evenodd" clip-rule="evenodd" d="M3.26968 3.79553C3.27118 3.79553 3.23368 3.83453 3.18643 3.88103C3.00493 4.05728 2.62918 4.42403 2.62543 5.19128C2.61943 6.26453 3.32518 8.25728 6.72343 11.6548C10.1059 15.0358 12.0957 15.7498 13.1712 15.7498H13.1869C13.9542 15.746 14.3202 15.3695 14.4972 15.1888C14.5512 15.1333 14.5947 15.0928 14.6254 15.0673C15.3724 14.3158 15.7549 13.7563 15.7512 13.3978C15.7459 13.0318 15.2907 12.599 14.6614 12.0005C14.4612 11.81 14.2437 11.603 14.0142 11.3735C13.4194 10.7803 13.1247 10.8815 12.4767 11.1095C11.5804 11.4238 10.3504 11.8513 8.43943 9.93953C6.52543 8.02703 6.95368 6.79853 7.26718 5.90228C7.49368 5.25428 7.59718 4.95878 7.00168 4.36328C6.76843 4.13078 6.55918 3.91028 6.36643 3.70778C5.77168 3.08228 5.34268 2.63003 4.97893 2.62478H4.97293C4.61368 2.62478 4.05568 3.00878 3.26593 3.79853C3.26818 3.79628 3.26893 3.79553 3.26968 3.79553ZM13.1719 16.8748C11.3029 16.8748 8.86618 15.3868 5.92843 12.4505C2.97943 9.50228 1.48918 7.05803 1.50043 5.18528C1.50718 3.94778 2.15593 3.31403 2.39968 3.07628C2.41243 3.06053 2.45593 3.01778 2.47093 3.00278C3.54643 1.92653 4.27168 1.49153 4.99318 1.49978C5.83093 1.51103 6.42718 2.13803 7.18168 2.93228C7.36843 3.12878 7.57093 3.34253 7.79668 3.56753C8.89168 4.66253 8.57968 5.55578 8.32918 6.27278C8.05618 7.05503 7.81993 7.73003 9.23443 9.14453C10.6504 10.559 11.3254 10.3228 12.1047 10.0475C12.8224 9.79702 13.7134 9.48353 14.8099 10.5785C15.0319 10.8005 15.2427 11.0008 15.4369 11.186C16.2349 11.9443 16.8649 12.5435 16.8754 13.3835C16.8844 14.0998 16.4494 14.8295 15.3754 15.9043L14.8999 15.5818L15.3019 15.9748C15.0642 16.2185 14.4312 16.868 13.1929 16.8748H13.1719Z" />
</g>
</svg>
