<svg width="120" height="120" viewBox="0 0 120 120" fill="none" xmlns="http://www.w3.org/2000/svg">
<mask id="mask0" mask-type="alpha" maskUnits="userSpaceOnUse" x="0" y="0" width="120" height="120">
<circle cx="60" cy="60" r="60" fill="black"/>
</mask>
<g mask="url(#mask0)">
<g opacity="0.3">
<path d="M62.6861 -39.5274C62.2327 -38.9833 62.1874 -37.4871 62.0665 -13.7445C61.9909 0.763962 61.87 11.1768 61.7793 12.401C61.1446 20.4713 60.4494 24.9146 58.2882 34.9194C56.127 44.8789 55.7643 46.0728 53.981 49.0652C52.3488 51.8006 51.306 54.5059 50.3236 58.4655C49.7493 60.808 49.7191 61.4881 50.2632 59.5989C50.7619 57.8609 52.3337 53.9769 53.8752 50.6671C54.6157 49.0652 55.2656 47.7201 55.3109 47.6748C55.4167 47.569 54.7971 49.6546 54.2379 51.2414C53.9961 51.9518 53.1951 53.992 52.4697 55.7754C49.9458 61.9717 49.4018 63.6492 48.3892 68.2134C46.6814 75.9663 45.427 85.7294 44.8376 95.6737C44.3389 104.454 44.2482 112.812 44.4296 138.821L44.5202 153.33L45.0492 153.315C45.6991 153.3 45.9711 153.088 46.3791 152.302C47.1046 150.882 47.1801 149.96 47.1348 143.658C47.1046 139.229 47.2255 134.061 47.6335 122.802C47.9207 114.565 48.238 104.167 48.3136 99.6787C48.6159 83.0846 48.9484 77.795 50.1272 70.6466C50.9433 65.7348 51.9256 62.2891 54.5402 55.1708C58.6207 44.0628 59.2554 41.5993 61.3864 28.7986C63.2755 17.479 63.4266 14.3203 63.5173 -14.8025C63.5475 -26.9836 63.5778 -37.4418 63.5929 -38.0463C63.608 -38.9077 63.5475 -39.2251 63.336 -39.4518C63.0337 -39.7994 62.9128 -39.8145 62.6861 -39.5274Z" fill="white"/>
<path d="M49.5984 -39.482C49.1752 -39.4216 49.1147 -39.346 48.9334 -38.5602C48.8125 -38.0916 48.7067 -36.6408 48.6765 -35.3562C48.6009 -31.4873 47.6186 -22.1323 46.5606 -15.135C46.2735 -13.2005 45.4272 -8.30389 44.7017 -4.2536C43.2509 3.66563 42.1476 8.396 40.6515 12.9148C38.4298 19.7005 34.8329 27.3326 33.0496 29.1008L32.3242 29.8111L30.4351 26.9548C25.7349 19.8819 22.3496 13.2019 20.0977 6.59755C18.7376 2.5926 16.9089 -5.87069 15.5789 -14.2735C14.4001 -21.7545 14.2943 -22.767 14.1583 -27.2707C14.0828 -29.6888 13.9467 -32.4998 13.8561 -33.5426C13.5085 -37.5325 12.7982 -39.4367 11.6798 -39.4367C11.3926 -39.4367 11.3926 -39.3158 11.4833 -33.6333C11.5438 -30.4445 11.6647 -26.6209 11.7402 -25.1398C12.8435 -5.8858 16.6822 11.2372 23.3773 26.849C25.5838 32.0025 29.6492 39.8764 31.9464 43.5035L32.5509 44.4406L33.9262 41.6144C41.2106 26.577 45.5783 8.69826 48.8427 -19.412C50.2936 -31.9104 51.0341 -39.346 50.8376 -39.4669C50.6563 -39.5878 50.4296 -39.5878 49.5984 -39.482Z" fill="white"/>
<path d="M74.9882 -39.4669C74.7917 -39.3309 74.958 -11.0091 75.1998 -1.65411C75.3056 1.79164 75.4416 9.10635 75.5171 14.5924C75.5927 20.0784 75.7287 25.5191 75.8194 26.6828C76.439 35.2821 77.7236 41.1459 80.2324 46.8587C85.8393 59.5989 88.4539 70.6163 89.678 86.5303C90.0105 90.9131 90.0559 107.235 89.7536 112.147C89.1944 121.124 88.9526 123.905 88.197 130.358C86.731 142.811 85.7336 147.602 83.6026 152.272C83.3155 152.922 83.0737 153.451 83.0737 153.481C83.0737 153.541 84.9477 153.149 85.2348 153.028C85.386 152.967 85.7033 152.62 85.9451 152.257C88.9224 147.95 90.5848 132.081 90.872 105.27C91.0382 91.2003 90.4639 73.5331 89.7083 68.6214C89.2549 65.7046 88.1063 61.8357 84.9326 52.6772C82.5749 45.831 81.4717 42.1434 80.8067 38.7732C80.5498 37.4433 80.2324 35.9168 80.1115 35.3728C79.8546 34.1335 79.235 29.5089 78.9327 26.4561C78.2677 19.7913 78.0864 14.9249 77.9352 -1.57855C77.8446 -9.81516 77.6934 -20.3489 77.5876 -25.0037C77.4818 -29.6586 77.4365 -34.1773 77.4818 -35.0539C77.5876 -36.5954 77.4818 -38.3032 77.2551 -38.7112C76.8773 -39.3611 76.5146 -39.5878 75.8345 -39.5878C75.4567 -39.5878 75.0638 -39.5273 74.9882 -39.4669Z" fill="white"/>
<path d="M98.761 -39.4821L98.3378 -39.4216V-4.10248C98.3378 40.9192 98.4587 49.2314 99.5468 75.12C99.7886 80.9838 100.076 88.0869 100.182 90.9131C100.439 97.8197 100.439 116.711 100.182 120.686C99.6829 128.363 99.2748 133.502 98.8668 137.008C98.5192 139.879 98.2773 141.255 97.2799 145.622C96.2673 150.126 96.0255 151.547 96.1011 152.499C96.1615 153.3 96.2975 153.345 97.8391 153.179C98.897 153.073 99.6677 152.65 99.97 151.985C100.121 151.698 100.212 150.383 100.302 147.768C100.378 145.668 100.514 142.388 100.59 140.484C101.496 120.353 101.738 94.0717 101.285 66.5055C100.998 48.5966 100.786 23.8717 100.635 -8.98399C100.575 -23.7796 100.514 -36.5501 100.529 -37.3511C100.529 -38.6357 100.484 -38.8624 100.227 -39.1194C99.8944 -39.4518 99.3655 -39.5727 98.761 -39.4821Z" fill="white"/>
<path d="M112.559 -39.4518C112.393 -39.346 112.393 -38.6962 112.529 -35.5678C112.816 -29.5528 112.907 -14.4095 112.71 -7.85049C112.514 -1.29144 112.196 4.37595 111.864 7.92751C111.426 12.4312 111.048 15.0306 108.932 28.4208C108.524 31.0353 108.131 33.5894 108.071 34.0882C108.01 34.5869 107.935 34.9043 107.889 34.7985C107.768 34.4055 109.249 23.7357 110.277 17.6301C110.61 15.6503 110.867 13.9878 110.821 13.9576C110.761 13.8972 110.761 13.9123 109.899 18.4462C108.358 26.6223 107.285 34.5264 106.801 41.1913C106.726 42.4305 106.605 43.9721 106.559 44.6068C106.348 47.312 106.121 65.4326 106.227 71.8707C106.393 84.218 106.922 92.0768 108.766 109.578C110.428 125.401 110.64 128.681 110.655 137.915C110.655 145.199 110.579 146.756 110.035 150.232C109.809 151.637 109.582 152.771 109.431 153.285C109.355 153.541 109.521 153.557 111.562 153.557H113.783L114.206 153.133C114.811 152.514 114.871 151.758 114.766 145.471C114.509 131.114 113.965 124.056 112.166 111.044C108.524 84.6563 107.859 77.2509 107.844 62.6518C107.844 49.8661 108.433 41.6295 110.428 26.9095C111.819 16.5873 112.317 11.4791 113.073 -0.671799C113.466 -7.15529 114.418 -24.1877 114.584 -27.7997C114.645 -29.0087 114.781 -30.9432 114.902 -32.1069C115.264 -35.7491 115.143 -37.6987 114.494 -38.7717C114.07 -39.4669 113.118 -39.7994 112.559 -39.4518ZM107.814 35.7808C107.768 35.9319 107.738 35.811 107.738 35.5239C107.738 35.2367 107.768 35.1158 107.814 35.2518C107.844 35.403 107.844 35.6448 107.814 35.7808ZM107.663 36.7632C107.617 36.8841 107.572 36.8387 107.572 36.6725C107.557 36.5062 107.602 36.4156 107.647 36.476C107.693 36.5213 107.708 36.6574 107.663 36.7632Z" fill="white"/>
<path d="M-3.22168 -39.0135C-3.97733 -38.2579 -4.11335 -36.8221 -3.8262 -32.7265C-3.75064 -31.5628 -3.61462 -28.5251 -3.52394 -25.9861C-3.13101 -14.8025 -1.55925 1.70094 -0.0328362 10.3607C1.78073 20.7282 4.0779 28.9044 9.60927 44.8788C15.3673 61.4427 18.3597 78.6716 19.7501 103.079C20.4 114.474 21.1103 135.859 21.0649 142.524C21.0347 147.526 21.0649 148.539 21.2916 149.733C21.8206 152.468 22.4856 153.557 23.6644 153.557H24.2387L24.3445 152.076C24.556 148.796 24.6316 131.764 24.4503 126.126C23.8306 106.253 22.0322 88.4497 18.6771 69.3166C16.4706 56.6972 15.5638 53.6746 9.8813 40.0578C4.80333 27.8918 3.57918 23.8566 1.56914 12.7032C-1.01518 -1.56348 -2.49626 -19.684 -2.23934 -33.6635L-2.13355 -39.4367H-2.46603C-2.64739 -39.4367 -2.97988 -39.2402 -3.22168 -39.0135Z" fill="white"/>
<path d="M5.45308 -36.3084C5.99715 -20.0468 7.07017 -7.95633 8.9593 2.8797C10.3497 10.935 12.9038 22.2093 14.9289 29.2368C15.9113 32.6675 18.4805 40.2391 21.1102 47.4631C28.3191 67.2763 29.6641 72.6868 30.4047 84.7923C30.5558 87.0895 30.6918 93.3462 30.7825 101.265C30.8581 108.293 30.9639 115.774 31.0092 117.89C31.3719 134.393 31.4021 139.683 31.1452 143.552C30.7523 149.234 31.0848 151.803 32.3845 152.937C32.8379 153.345 33.0343 153.405 33.7447 153.405H34.5759L34.5456 126.005C34.5154 99.0439 34.5456 96.2782 35.0142 87.5882C35.7698 73.8807 37.5078 61.4729 40.1677 50.8635C41.3012 46.3599 41.9057 44.4556 44.5505 37.0049C48.6008 25.6097 49.4169 22.1337 51.5629 7.26248C53.2102 -4.10251 53.9659 -11.6137 54.7366 -23.7192C55.0842 -29.3261 55.5679 -39.1798 55.5074 -39.2554C55.3109 -39.4368 54.8273 -39.0589 54.6157 -38.5602C54.1019 -37.3965 54.0263 -36.5502 53.9054 -30.2178C53.8148 -25.155 53.709 -22.9182 53.3916 -19.6387C52.0314 -5.50803 50.4143 4.43634 47.3313 17.6905C45.6537 24.8389 44.3691 29.3577 41.2861 38.9243C40.5002 41.3272 39.5783 44.244 39.2307 45.3775C38.868 46.5261 38.5506 47.4329 38.5204 47.3876C38.4146 47.2969 40.213 41.2214 43.2356 31.4584C44.1273 28.6021 44.8225 26.2293 44.7772 26.1991C44.7318 26.1538 44.6563 26.32 44.5958 26.5467C44.5354 26.7885 43.281 30.4459 41.815 34.6926C40.3339 38.9243 38.7773 43.4884 38.3692 44.8183C36.0116 52.2691 34.1829 61.0346 32.8983 70.9639C32.7321 72.2938 32.5658 73.4877 32.5507 73.6086C32.5205 73.7295 32.3845 73.2913 32.2334 72.6263C31.78 70.5709 30.9487 67.2763 30.3896 65.372C30.0873 64.3746 29.3468 61.8205 28.7422 59.7047C26.4904 51.9366 24.2688 46.0425 22.3797 42.9141C21.6694 41.7353 19.5686 36.3248 17.8458 31.2166C14.2186 20.5317 11.0298 4.01318 9.11043 -14.0469C8.38501 -20.7722 7.41777 -32.243 7.11551 -37.593L7.00972 -39.4368H6.17851H5.34729L5.45308 -36.3084ZM19.6593 37.4885C20.2336 38.8336 20.3092 39.3776 19.75 38.1384C19.4024 37.3827 18.9943 36.2946 18.9943 36.1586C18.9943 35.9621 19.1606 36.2946 19.6593 37.4885Z" fill="white"/>
<path d="M15.5183 -39.0589C15.5183 -38.4393 15.7752 -33.9658 15.9717 -31.2757C17.2412 -14.1224 20.2336 -1.12521 25.4022 9.60504C26.8229 12.537 28.0319 14.6528 29.9664 17.5394C31.8857 20.4108 31.9764 20.5318 32.1124 20.3202C32.1729 20.2446 32.732 19.5192 33.3819 18.7333C40.1676 10.3607 44.0215 -2.48538 45.6688 -22.2834C46.0315 -26.7418 46.8023 -39.1798 46.7116 -39.2856C46.6662 -39.3309 46.4698 -39.1798 46.2733 -38.9531C45.6083 -38.1823 45.427 -36.7768 45.291 -31.3512C44.9585 -18.6261 42.6311 -5.44753 39.1551 3.43893C37.6891 7.17184 35.7395 10.8896 33.4726 14.2599L32.2635 16.0281L31.7195 15.5898C30.4651 14.5923 27.4425 11.0106 27.6541 10.799C27.6994 10.7536 27.1705 9.54459 26.4904 8.12396C25.7952 6.68823 24.8733 4.66308 24.435 3.60517C23.9816 2.54726 23.5887 1.70093 23.5584 1.73116C23.4526 1.85206 25.3267 6.24995 26.4148 8.45645C27.0647 9.75617 27.4576 10.6478 27.2914 10.4363C26.8077 9.81662 24.4954 5.05602 23.8456 3.33314C22.5308 -0.188198 20.7776 -6.56589 20.2789 -9.61872C20.158 -10.3744 19.5384 -15.0141 18.9187 -19.956C17.3016 -32.6812 16.4553 -37.7894 15.7601 -39.074L15.5334 -39.5123L15.5183 -39.0589Z" fill="white"/>
<path d="M43.281 -35.4015C43.0392 -24.6562 41.1501 -14.742 37.3567 -4.23848C35.9512 -0.369545 32.7472 7.17185 32.309 7.61013C32.1578 7.76126 31.3115 6.32552 29.6793 3.18202C27.231 -1.53325 24.9036 -7.26108 23.09 -13.0645C22.1379 -16.1475 21.9868 -16.8427 20.8835 -24.2481C20.1279 -29.311 19.3722 -33.7844 18.9339 -35.8247C18.541 -37.6685 17.9969 -39.2856 17.7702 -39.2856C17.6947 -39.2856 17.6796 -38.8926 17.7098 -38.4241C17.7551 -37.9405 17.8911 -36.263 18.012 -34.6761C19.342 -18.1576 23.1505 -4.34427 29.4224 6.74869C30.2989 8.29022 31.9916 11.0559 32.2183 11.3128C32.3392 11.4488 33.7749 9.74107 34.6364 8.47157C37.0696 4.84445 38.8378 -0.157963 40.3793 -7.85049C41.9511 -15.7848 43.0241 -23.4018 44.1576 -34.7819C44.6563 -39.7994 44.6714 -39.4367 43.946 -39.4367H43.3717L43.281 -35.4015Z" fill="white"/>
<path d="M59.0137 -35.0539C59.0893 -29.4772 58.6963 -23.1146 57.0792 -4.67676C56.0213 7.42877 54.6309 19.0507 53.5126 25.0657C53.2254 26.6979 53.0592 26.849 53.301 25.2621C53.4068 24.6727 53.4521 24.0984 53.4068 23.9926C53.3766 23.902 53.301 24.1438 53.2405 24.5669C53.0894 25.5946 52.1977 29.252 51.5479 31.5038C50.6864 34.466 49.7797 37.1561 47.2558 44.2894C44.0367 53.4026 42.5103 58.0876 42.3592 59.3269C42.3289 59.6745 42.1929 60.3546 42.0569 60.8382C41.0292 64.9187 40.1829 70.2234 39.6237 75.9663C38.8983 83.674 38.6565 97.4419 38.6414 131.476V153.436L40.2131 153.375C41.0897 153.345 41.8151 153.285 41.8453 153.254C41.8755 153.209 41.8151 150.489 41.6942 147.209C41.407 139.305 41.3617 112.026 41.6337 105.27C42.1476 92.1977 43.0997 79.533 44.4599 67.7146C45.1248 61.9566 45.4422 60.5662 47.1953 55.5184C49.6739 48.3548 50.1726 46.8133 50.9585 43.6093C54.8727 27.6198 57.4571 9.72595 58.8928 -11.4021C59.3311 -18.0216 60.1018 -35.0086 60.1018 -38.3788V-39.3611H59.5276H58.9381L59.0137 -35.0539Z" fill="white"/>
<path d="M67.2805 -33.6636C67.4165 -25.3968 67.8095 12.552 67.8095 17.766C67.8246 21.242 67.7792 22.2999 67.5979 22.9044C67.4619 23.3276 67.0991 24.99 66.7667 26.6071C65.1193 34.617 64.5299 36.7026 61.7945 44.2138C58.1673 54.1884 57.4873 56.002 56.8525 57.6493C53.6637 65.8708 52.243 74.4247 51.4118 90.3085C49.8552 120.172 49.6587 125.492 49.432 144.262C49.3413 152.287 49.3413 152.907 49.5831 153.148C49.9307 153.496 50.4748 153.466 50.8073 153.103C51.1398 152.725 51.1247 152.982 51.4118 144.186C52.5755 108.837 54.2531 87.029 57.1548 70.1629C58.1522 64.3746 58.651 62.5308 62.2176 51.7703C64.9833 43.4279 65.6936 41.0098 66.3737 37.9117C66.8876 35.4936 67.3561 32.5768 67.3561 31.7153C67.3561 30.6725 67.5979 30.7028 67.7188 31.7607C67.9455 34.0125 69.0336 38.5767 70.1822 42.098C71.3308 45.6647 73.8093 51.3018 75.9251 55.2463C81.1845 64.9791 83.3608 71.5079 84.4942 80.8629C85.6277 90.2632 85.8242 105.482 84.9627 116.983C84.4338 123.905 84.0106 126.398 81.1996 138.836C79.779 145.123 78.6908 151.32 78.6908 153.073C78.6908 153.572 78.7059 153.587 79.1896 153.496C79.4465 153.451 79.8243 153.239 80.0057 153.028C80.6555 152.287 80.8218 151.29 80.9729 147.496L81.0938 143.914L82.0006 140.393C84.2826 131.431 85.8544 120.338 86.5647 108.142C86.7914 104.213 86.7914 91.1851 86.5647 86.6058C86.0811 76.6917 85.8091 74.3794 84.5093 69.1201C83.1794 63.7549 82.0157 60.959 78.7362 55.3068C76.2727 51.0902 76.0612 50.6671 74.9428 47.6898C73.2048 43.0803 72.2073 39.3474 71.2099 33.7858C70.9076 32.1234 70.6054 30.5214 70.5298 30.2343L70.3938 29.7053L70.4542 30.2343C70.4845 30.5214 70.56 31.141 70.5902 31.5944L70.6658 32.4257L70.5147 31.7456C70.4391 31.3677 70.0915 29.4937 69.759 27.5895L69.1545 24.1135L68.9278 -3.16551C68.7465 -24.7318 68.7313 -31.0037 68.8825 -33.1346C69.0638 -35.9003 68.9883 -37.6534 68.6407 -38.4695C68.4291 -38.9985 67.885 -39.4368 67.4619 -39.4368C67.1898 -39.4368 67.1898 -39.2101 67.2805 -33.6636ZM70.7867 32.8337C70.7414 32.9546 70.696 32.9093 70.696 32.743C70.6809 32.5768 70.7263 32.4861 70.7716 32.5466C70.8169 32.5919 70.8321 32.7279 70.7867 32.8337Z" fill="white"/>
<path d="M84.0558 -39.2553C83.9047 -38.8624 84.0861 8.53204 84.2523 12.2498C84.9777 28.2999 85.9601 37.5037 88.2119 49.3523C90.3277 60.4302 90.9323 63.891 91.6728 69.2259C92.4436 74.6817 92.9121 79.3214 93.3503 85.6991C93.8037 92.1222 93.6828 106.555 93.1085 115.774C92.9876 117.724 92.8516 120.051 92.7912 120.943C92.7458 121.834 92.6551 122.53 92.5947 122.499C92.5494 122.469 92.3831 123.844 92.232 125.567C91.3705 135.874 89.8895 144.625 87.7585 151.97C87.5923 152.544 87.4563 153.073 87.4563 153.133C87.4563 153.209 87.819 153.254 88.2724 153.254C89.3303 153.254 89.7232 152.937 90.4033 151.531C91.3705 149.506 92.1262 145.864 92.7458 140.106C92.9121 138.489 93.2294 135.663 93.4259 133.834C95.6778 113.643 95.98 96.4294 94.4838 74.7422C94.0607 68.6365 94.0607 67.2159 94.4838 71.7952C94.6501 73.5785 94.6803 73.775 94.635 72.6264C94.5292 70.1781 93.9095 64.2235 93.7735 64.4351C93.7131 64.5258 93.6677 64.2689 93.6828 63.8608C93.6979 63.0447 93.2597 59.6745 91.3857 46.0275C90.1464 36.9445 89.4058 30.99 89.4361 30.1588C89.4512 29.917 89.6477 31.2318 89.8744 33.1058C90.7962 40.3903 92.368 52.0424 92.4133 51.8157C92.4436 51.6948 91.9146 46.9342 91.2496 41.2517C89.7383 28.3603 89.2245 23.7509 88.7862 19.0507C88.5746 16.7989 88.4084 15.5898 88.3631 15.9525C88.2421 16.8895 87.1691 0.537247 86.5646 -11.5532C86.0508 -21.6789 85.9299 -25.6687 85.9752 -31.5023C86.0205 -36.5501 85.9903 -37.1697 85.7485 -37.8649C85.5974 -38.2881 85.3253 -38.7717 85.144 -38.938C84.6906 -39.3611 84.1465 -39.5123 84.0558 -39.2553ZM89.2245 27.7709C89.1792 27.9221 89.1489 27.8011 89.1489 27.514C89.1489 27.2269 89.1792 27.1059 89.2245 27.242C89.2547 27.3931 89.2547 27.6349 89.2245 27.7709ZM89.3756 29.2822C89.3454 29.524 89.3152 29.3578 89.3152 28.9497C89.3152 28.5266 89.3454 28.3452 89.3756 28.5266C89.4058 28.723 89.4058 29.0555 89.3756 29.2822ZM94.0607 68.1982C94.0304 68.3947 94.0002 68.2738 94.0002 67.9413C93.9851 67.6088 94.0153 67.4577 94.0607 67.5937C94.0909 67.7449 94.0909 68.0169 94.0607 68.1982ZM90.2824 144.972C90.2371 145.093 90.1917 145.048 90.1917 144.882C90.1766 144.715 90.222 144.625 90.2673 144.685C90.3126 144.731 90.3277 144.867 90.2824 144.972ZM89.7232 147.738C89.4814 148.887 89.2245 149.869 89.1792 149.914C89.1187 149.96 89.1187 149.839 89.164 149.627C89.2245 149.416 89.4512 148.373 89.6779 147.3C89.9046 146.227 90.101 145.411 90.1313 145.501C90.1615 145.577 89.9801 146.589 89.7232 147.738ZM89.0431 150.685C88.9071 151.305 88.7862 151.184 88.9071 150.549C88.9676 150.292 89.0431 150.096 89.0734 150.141C89.1187 150.171 89.1036 150.428 89.0431 150.685ZM88.7711 151.622C88.7258 151.743 88.6804 151.698 88.6804 151.531C88.6653 151.365 88.7106 151.275 88.756 151.335C88.8013 151.38 88.8164 151.516 88.7711 151.622Z" fill="white"/>
<path d="M117.229 -31.6988C117.229 -14.606 116.413 1.42891 114.962 13.1566C114.478 17.086 112.015 33.9219 111.97 33.665C111.924 33.4232 113.224 23.6148 114.146 17.2673C114.433 15.2422 114.66 13.474 114.63 13.338C114.584 13.0962 113.526 19.4134 112.771 24.4914C111.018 36.1435 109.899 47.7805 109.793 55.1708C109.582 71.0546 110.443 79.0192 113.844 92.5453C117.169 105.83 118.755 115.532 119.209 125.446C119.36 128.877 119.33 130.555 118.982 140.635C118.771 146.877 118.589 152.332 118.589 152.771V153.557H119.239C119.587 153.557 119.995 153.451 120.131 153.345C120.75 152.876 120.826 152.317 120.841 147.663C120.856 145.214 120.917 140.62 120.977 137.461C121.249 124.222 120.69 109.003 119.496 97.0339C118.997 91.971 118.74 90.5806 117.002 83.4322C115.733 78.1879 115.234 75.6792 114.811 72.1881C113.965 65.3419 113.677 59.1758 113.798 50.0324C113.934 39.9369 114.373 33.6196 116.171 15.5747C117.652 0.839493 118.121 -4.63141 118.589 -11.8554C118.755 -14.5153 118.967 -17.7193 119.043 -18.9586C119.662 -28.2984 119.466 -35.9758 118.559 -38.3032C118.332 -38.9229 117.834 -39.4367 117.501 -39.4367C117.244 -39.4367 117.229 -39.0891 117.229 -31.6988ZM111.894 34.7229C111.849 34.874 111.819 34.7531 111.819 34.466C111.819 34.1788 111.849 34.0579 111.894 34.1939C111.924 34.3451 111.924 34.5869 111.894 34.7229ZM111.743 35.9319C111.698 36.0831 111.667 35.9924 111.667 35.7506C111.667 35.4937 111.698 35.3879 111.743 35.4785C111.773 35.5843 111.773 35.7959 111.743 35.9319ZM111.592 36.7632C111.547 36.8841 111.501 36.8387 111.501 36.6725C111.486 36.5062 111.531 36.4156 111.577 36.476C111.622 36.5213 111.637 36.6574 111.592 36.7632Z" fill="white"/>
<path d="M125.466 -25.8652C125.451 -4.46519 125.284 -2.87833 121.612 10.6176C119.677 17.7207 119.436 18.7937 117.834 27.121C116.217 35.4936 115.703 41.7958 115.688 52.9038C115.672 60.7022 115.96 65.6441 116.715 70.7372C117.501 76.1023 118.378 79.5179 120.221 84.4145C121.627 88.1625 121.703 88.3741 122.277 90.4597C124.514 98.5603 125.043 104.152 125.39 123.935C125.919 153.783 125.889 152.846 126.221 153.345C126.493 153.753 126.841 153.798 127.294 153.496C127.597 153.269 127.612 153.239 127.642 134.711C127.672 116.182 127.566 110.228 127.128 103.835C126.871 100.102 126.388 95.311 126.07 93.3312C125.964 92.5755 125.753 91.0945 125.617 90.0214C125.345 87.8905 124.498 84.354 123.577 81.543C121.431 74.8933 119.466 66.5811 118.786 61.0649C118.423 58.2539 118.438 51.0752 118.786 47.6899C119.39 42.0527 120.388 36.3702 122.141 28.6172C126.161 10.8594 126.599 8.396 127.234 -0.293991C127.461 -3.48285 127.491 -17.9762 127.294 -30.7165L127.158 -39.4367H126.312H125.466V-25.8652ZM124.136 4.27014C124.09 4.37593 124.06 4.30037 124.06 4.08878C124.06 3.8772 124.09 3.80164 124.136 3.8923C124.166 3.99811 124.166 4.17946 124.136 4.27014ZM123.985 5.10135C123.939 5.25249 123.909 5.1618 123.909 4.92C123.909 4.66307 123.939 4.55728 123.985 4.64796C124.015 4.75375 124.015 4.96533 123.985 5.10135ZM123.667 6.91492C123.531 7.54967 123.38 8.10884 123.32 8.15419C123.274 8.19952 123.274 8.07861 123.32 7.86703C123.365 7.65546 123.501 7.02071 123.592 6.44641C123.697 5.87212 123.818 5.47917 123.849 5.56985C123.879 5.67564 123.788 6.26506 123.667 6.91492Z" fill="white"/>
<path d="M-6.47113 11.343C-6.42579 17.9625 -6.47113 20.2446 -6.65249 22.1488C-6.95475 25.4737 -6.87918 27.9371 -6.41068 28.995C-5.92706 30.0529 -5.24697 30.5365 -4.20418 30.5365C-3.46364 30.5365 -3.38807 30.5819 -2.08835 31.7153C-0.289903 33.2871 0.541313 34.2392 1.47832 35.7656C3.11053 38.4709 4.45559 41.8411 5.90644 46.8133C8.64189 56.1984 9.5789 60.3545 11.0449 69.6793C12.2388 77.2358 14.1733 94.2379 14.9138 103.608C15.5788 112.102 16.1833 132.398 16.0926 143.733C16.0624 148.63 16.0926 150.201 16.2589 150.912C16.6367 152.604 17.2412 153.405 18.148 153.405H18.5863L18.4956 140.892C18.3445 118.661 17.3319 102.883 14.5964 80.2735C12.9793 66.7624 11.5436 59.3571 8.55121 48.914C5.8611 39.5288 3.09541 33.2871 -0.410807 28.7381C-0.879311 28.1336 -1.3327 27.257 -1.77098 26.1235C-2.61731 23.917 -3.4183 21.4687 -3.32762 21.378C-3.29739 21.3327 -3.04047 21.9372 -2.78355 22.708C-2.16392 24.4762 -1.42338 25.9422 0.344844 28.9043C3.51858 34.2392 5.75531 38.9394 7.07014 43.035C7.32706 43.8209 7.56887 44.4405 7.59909 44.3952C7.62932 44.3649 7.40263 43.4582 7.07014 42.3851C5.15078 36.1586 3.17098 31.9572 -0.168999 27.0757C-2.57197 23.5543 -3.49386 21.0153 -4.8087 14.29C-5.09584 12.7938 -5.30743 11.9475 -5.24697 12.4009C-5.20164 12.8543 -4.95983 14.2447 -4.71802 15.484C-4.47621 16.7232 -4.29485 17.766 -4.32508 17.7962C-4.41576 17.8869 -5.00517 15.0004 -5.48878 12.1742C-5.8515 9.98282 -6.03285 8.36574 -6.45602 3.63536C-6.48624 3.25752 -6.50136 6.73352 -6.47113 11.343ZM-3.56943 20.5922C-3.61477 20.7131 -3.66011 20.6677 -3.66011 20.5015C-3.67522 20.3353 -3.62988 20.2446 -3.58454 20.305C-3.5392 20.3504 -3.52409 20.4864 -3.56943 20.5922Z" fill="white"/>
<path d="M114.675 12.7939C114.675 12.9601 114.72 13.0054 114.766 12.8845C114.811 12.7788 114.796 12.6427 114.751 12.5974C114.705 12.5369 114.66 12.6276 114.675 12.7939Z" fill="white"/>
<path d="M44.8527 25.7911C44.8527 25.9573 44.898 26.0027 44.9434 25.8818C44.9887 25.776 44.9736 25.64 44.9283 25.5946C44.8829 25.5342 44.8376 25.6248 44.8527 25.7911Z" fill="white"/>
<path d="M-6.69775 36.3248C-6.96979 40.9494 -7.09069 40.5867 -4.59704 43.1559C-2.25453 45.5891 -1.55933 46.5564 0.0275397 49.6243C2.91413 55.1859 4.34986 59.5082 6.35989 68.5458C9.26159 81.6639 10.1986 90.3992 11.3623 115.018C11.5739 119.462 11.8157 124.434 11.8913 126.051C11.9668 127.668 12.1028 130.464 12.1935 132.247C12.2842 134.031 12.4202 136.857 12.526 138.519C12.6167 140.182 12.7074 143.612 12.7225 146.151C12.7527 150.927 12.8434 151.773 13.4177 152.74C13.6897 153.194 14.2489 153.511 14.3547 153.285C14.4454 153.103 13.2212 121.441 12.8736 114.641C12.0122 98.3033 10.8938 85.8955 9.33716 75.4222C9.17092 74.3039 8.85354 72.0218 8.64196 70.3594C8.23391 67.1403 8.15834 66.7171 8.11301 67.5634C8.08278 67.9866 8.03744 67.8808 7.85608 67.0345C6.08786 58.4352 3.79068 49.8056 2.26427 46.103C1.61441 44.5161 1.53884 44.2894 1.78065 44.6672C2.08291 45.1357 3.32218 48.0072 3.80579 49.322C4.03249 49.9568 4.25918 50.4706 4.28941 50.4404C4.51611 50.1986 1.67486 43.7756 1.41794 43.9418C1.32726 43.9871 1.31215 43.9569 1.35749 43.8813C1.53884 43.5791 -1.33263 38.9696 -3.01018 36.8538C-3.90185 35.7354 -6.33504 33.1058 -6.47106 33.1058C-6.48617 33.1058 -6.59196 34.5566 -6.69775 36.3248ZM8.2188 68.6516C8.17346 68.7574 8.14323 68.6818 8.14323 68.4702C8.14323 68.2586 8.17346 68.1831 8.2188 68.2738C8.24902 68.3796 8.24902 68.5609 8.2188 68.6516Z" fill="white"/>
<path d="M66.2679 50.3347C65.1798 51.4379 64.2428 53.3573 62.0967 58.7979C59.6786 64.9792 58.0615 72.6264 56.9281 83.1299C56.656 85.7596 55.6283 98.7417 55.2656 104.061C54.646 113.492 54.646 125.658 55.2656 144.489C55.3412 147.028 55.4621 150.035 55.5074 151.184L55.5981 153.254H56.4293C57.2303 153.254 57.2605 153.239 57.1699 152.922C56.9129 151.985 56.4596 148.887 56.3235 147.149C56.112 144.428 56.1422 139.864 56.3991 134.892C56.52 132.565 56.7618 127.396 56.9281 123.406C57.7139 104.893 58.1673 97.2152 58.8323 91.0642C60.1471 78.7925 62.6106 68.4552 66.1772 60.2337C66.7515 58.9037 67.2654 57.6947 67.3107 57.5436C67.356 57.4075 67.4316 57.2866 67.4921 57.2866C67.6432 57.2866 70.4391 61.6543 71.5575 63.6492C75.7589 71.1453 78.4188 78.9738 79.8847 88.1172C80.988 95.0087 81.124 104.031 80.2626 113.129C79.6429 119.703 77.4515 134.242 76.2727 139.501C75.7135 142.04 75.3357 144.096 75.1695 145.547L75.0788 146.227L75.3659 145.396C75.6682 144.504 75.6682 144.67 75.3811 146.529C75.245 147.3 74.6859 151.955 74.565 153.103C74.4743 154.07 75.7891 153.239 76.3483 151.97C76.8017 150.957 77.1039 149.416 77.4062 146.68C77.9049 141.95 78.0863 140.726 78.5246 139.335C80.4439 133.078 81.5774 124.056 82.3482 108.746C82.59 103.714 82.6051 89.2809 82.3482 86.3792C81.7739 79.6237 80.9275 74.6968 79.5371 69.8758C78.8268 67.4426 77.0284 62.4704 76.0611 60.3092C74.2627 56.2892 71.8597 52.9794 69.487 51.2414C68.9731 50.8636 68.2326 50.3195 67.8397 50.0173L67.1294 49.4732L66.2679 50.3347ZM71.3005 53.1608C72.434 54.3698 73.3861 55.7602 74.3685 57.6645C75.1544 59.1607 75.1241 59.1455 73.6733 56.939C72.7363 55.5033 71.7842 54.2792 70.0764 52.2691C69.487 51.589 69.4568 51.5135 69.8648 51.8006C70.1217 51.982 70.7716 52.6016 71.3005 53.1608Z" fill="white"/>
<path d="M4.6521 51.6948C4.6521 51.8157 4.71255 52.0273 4.78812 52.1482C4.96947 52.4202 4.96947 52.1784 4.78812 51.7704C4.69744 51.5739 4.6521 51.5437 4.6521 51.6948Z" fill="white"/>
<path d="M-6.80353 52.5562C-6.68263 52.9189 -6.63729 53.3874 -6.71285 53.8106C-6.95466 55.3975 -6.31991 56.6821 -4.14364 59.0095C-2.14872 61.1404 -1.45352 62.0774 -0.607192 63.8154C0.344929 65.7499 0.994789 67.4879 1.91668 70.5105C4.80327 80.0317 5.54381 84.7469 6.48082 99.1497C6.87375 105.376 6.93421 115.502 6.63195 124.162C6.54127 127.154 6.37502 132.156 6.29946 135.27C6.13322 140.937 6.08788 141.723 5.63449 144.262C4.98463 147.889 3.74536 150.942 2.29451 152.423C1.84112 152.892 1.46329 153.3 1.46329 153.33C1.46329 153.36 2.85369 153.39 4.56146 153.405C6.96443 153.405 7.67474 153.375 7.7352 153.224C7.76542 153.118 7.93167 151.531 8.11302 149.703C9.32206 136.464 9.41274 124.615 8.49085 102.626C7.7352 84.7621 7.43294 81.7848 5.45313 71.7951C4.4859 66.9136 2.98971 62.8784 0.934337 59.5686C-1.03036 56.4251 -3.22174 54.2489 -6.42571 52.3144L-7 51.9819L-6.80353 52.5562ZM-4.27966 54.1582C-3.14618 54.8232 -1.01524 56.9692 -0.0480099 58.4049C0.722754 59.5686 2.53632 63.1504 2.73279 63.9363C2.79324 64.1479 2.47587 63.5887 2.02247 62.7122C0.0426683 58.8432 -2.54166 55.7753 -5.42825 53.8559C-5.88164 53.5537 -6.24435 53.2816 -6.24435 53.2514C-6.24435 53.1456 -5.11087 53.6746 -4.27966 54.1582ZM5.04508 147.995C4.99974 148.116 4.9544 148.07 4.9544 147.904C4.93929 147.738 4.98463 147.647 5.02997 147.708C5.0753 147.753 5.09042 147.889 5.04508 147.995ZM4.65214 149.189C4.30454 150.232 3.41287 152.015 2.98971 152.499C2.82346 152.71 2.9746 152.347 3.35242 151.683C3.71513 151.033 4.19875 149.99 4.42544 149.37C4.89395 148.101 5.09042 147.95 4.65214 149.189Z" fill="white"/>
<path d="M92.4739 52.6016C92.4739 52.8887 92.5041 53.0096 92.5494 52.8585C92.5797 52.7225 92.5797 52.4807 92.5494 52.3295C92.5041 52.1935 92.4739 52.3144 92.4739 52.6016Z" fill="white"/>
<path d="M7.23657 62.1228C7.23657 62.3343 7.2668 62.4099 7.31214 62.3041C7.34236 62.2134 7.34236 62.0321 7.31214 61.9263C7.2668 61.8356 7.23657 61.9112 7.23657 62.1228Z" fill="white"/>
<path d="M7.38757 63.0296C7.38757 63.2412 7.4178 63.3167 7.46314 63.2109C7.49336 63.1203 7.49336 62.9389 7.46314 62.8331C7.4178 62.7424 7.38757 62.818 7.38757 63.0296Z" fill="white"/>
<path d="M7.53875 63.7097C7.52364 63.8759 7.65965 64.692 7.81078 65.5232C7.97703 66.3847 8.0677 66.6869 8.02237 66.2033C7.93169 65.221 7.55386 63.2714 7.53875 63.7097Z" fill="white"/>
<path d="M41.0745 63.8759C41.0745 64.0421 41.1198 64.0875 41.1652 63.9666C41.2105 63.8608 41.1954 63.7248 41.1501 63.6794C41.1047 63.619 41.0594 63.7097 41.0745 63.8759Z" fill="white"/>
<path d="M-6.65239 64.8734C-6.62216 65.2361 -6.65239 66.8078 -6.72795 68.3796C-6.90931 71.8102 -6.84886 72.309 -5.7305 76.4953C-2.78346 87.4976 -1.30238 96.0364 -0.320034 107.613C-0.0631127 110.651 -0.0631127 123.043 -0.320034 125.144C-0.879216 129.738 -1.4384 132.852 -2.57187 137.688C-3.13106 140.106 -3.44843 141.088 -4.30987 143.129C-6.09321 147.3 -6.5466 148.902 -6.5466 151.018C-6.5466 152.816 -6.07809 153.602 -5.14109 153.33C-4.09829 153.013 -2.57187 151.365 -1.66509 149.552C-0.531617 147.27 0.858782 142.63 1.44819 139.048C2.35497 133.653 2.61189 128.272 2.3852 119.552C2.29452 116.016 2.17361 112.782 2.14339 112.374C2.09805 111.95 2.0376 108.686 1.99226 105.119C1.84113 92.6058 1.38774 85.9711 0.239148 80.1073C-0.652521 75.5734 -2.1336 71.2662 -3.91693 68.1378C-4.71792 66.7172 -6.45592 64.2386 -6.63728 64.2386C-6.68262 64.2386 -6.69773 64.5258 -6.65239 64.8734ZM-4.92951 67.8657C-4.40055 68.6516 -4.08318 69.2259 -4.18897 69.2259C-4.21919 69.2259 -4.47611 68.8632 -4.73304 68.4249C-5.00507 68.0018 -5.42823 67.3972 -5.65493 67.095C-5.89674 66.7927 -6.09321 66.4905 -6.09321 66.43C-6.09321 66.294 -5.48869 67.0345 -4.92951 67.8657Z" fill="white"/>
<path d="M40.9234 64.4804C40.9234 64.6467 40.9687 64.692 41.0141 64.5711C41.0594 64.4653 41.0443 64.3293 40.9989 64.2839C40.9536 64.2235 40.9083 64.3142 40.9234 64.4804Z" fill="white"/>
<path d="M66.7818 69.8606C65.3008 72.4752 64.7265 74.1074 63.4419 79.276C61.2807 88.0869 60.6762 93.7241 60.0263 111.134C59.6636 120.852 59.7241 125.96 60.3286 139.653C60.4646 142.433 60.6006 146.635 60.6611 148.977L60.7517 153.254H61.6283H62.5049V148.599C62.5049 143.93 62.6106 141.27 63.064 135.27C63.2303 133.018 63.3663 131.854 63.5476 131.492C63.865 130.781 63.9708 128.272 63.729 126.882C63.6232 126.308 63.321 125.068 63.0489 124.162C62.6862 122.968 62.4444 121.653 62.1875 119.552C61.8852 116.953 61.8399 115.91 61.8399 110.636C61.8399 104.53 61.9154 103.275 62.5351 98.8474C63.3512 93.1195 64.8474 87.5731 66.8423 83.0089C67.2957 81.9812 67.7188 81.0291 67.7944 80.8931C68.0362 80.4699 70.7112 85.8502 72.1016 89.5831C74.5953 96.2328 75.6532 102.943 75.3358 109.986C75.094 115.366 74.4895 118.328 72.4794 123.95C70.7566 128.786 70.2578 130.298 69.7138 132.474C68.8372 135.98 68.807 136.252 68.807 144.338C68.807 151.32 68.8221 151.864 69.079 152.287C69.5173 153.028 70.1369 153.315 71.3611 153.315C72.3283 153.33 72.419 153.3 72.3888 153.028C72.3737 152.861 72.3434 151.199 72.3434 149.325C72.3283 143.99 72.691 141.118 74.7615 130.282C76.6506 120.414 76.8773 118.464 76.9831 111.92C77.2249 95.6888 75.0638 83.2054 70.3334 73.7598C69.3359 71.7648 67.6433 68.7725 67.4921 68.7725C67.4468 68.7725 67.1294 69.2712 66.7818 69.8606ZM63.2303 128.424C63.2 128.665 63.1698 128.469 63.1698 128.016C63.1698 127.562 63.2 127.366 63.2303 127.592C63.2605 127.834 63.2605 128.197 63.2303 128.424ZM63.3814 130.162C63.3512 130.434 63.321 130.252 63.321 129.754C63.321 129.255 63.3512 129.028 63.3814 129.255C63.4116 129.481 63.4116 129.89 63.3814 130.162Z" fill="white"/>
<path d="M94.756 75.1955C94.756 75.6943 94.7862 75.8756 94.8164 75.6036C94.8467 75.3316 94.8467 74.9235 94.8164 74.6968C94.7862 74.4701 94.756 74.6968 94.756 75.1955Z" fill="white"/>
<path d="M67.9907 92.6662C67.3862 93.6636 66.8875 94.9482 66.5097 96.5351C66.0109 98.6661 66.0563 98.7416 66.7364 96.8827C67.2653 95.4016 68.0814 93.3916 68.1872 93.2707C68.293 93.18 69.759 96.3689 70.1519 97.5326C70.6506 99.0439 71.0889 101.145 71.2854 103.019C71.3761 103.835 71.4667 104.53 71.5121 104.56C71.7085 104.757 71.3761 101.386 71.0436 99.6786C70.7111 98.0162 69.7892 95.2807 68.9882 93.5578L68.3232 92.1372L67.9907 92.6662Z" fill="white"/>
</g>
<path d="M120 60C120 46.6296 115.534 33.6423 107.311 23.0994C99.0882 12.5566 87.5795 5.06239 74.6116 1.80634C61.6437 -1.4497 47.9598 -0.281019 35.7319 5.12689C23.5039 10.5348 13.4327 19.8721 7.11662 31.6566C0.800573 43.4411 -1.39832 56.9977 0.868957 70.1745C3.13624 83.3512 9.73977 95.3932 19.6314 104.389C29.523 113.385 42.136 118.819 55.4682 119.829C68.8004 120.838 82.088 117.366 93.2217 109.963L89.4263 104.255C79.5645 110.812 67.795 113.888 55.9859 112.993C44.1769 112.099 33.0049 107.286 24.2434 99.3177C15.4818 91.3496 9.6327 80.6834 7.62445 69.0121C5.61619 57.3407 7.56387 45.3329 13.1583 34.8947C18.7528 24.4565 27.6735 16.186 38.5044 11.3959C49.3353 6.60585 61.4559 5.57068 72.9423 8.45474C84.4286 11.3388 94.6226 17.9768 101.906 27.3152C109.19 36.6535 113.145 48.1571 113.145 60H120Z"/>
</g>
<g clip-path="url(#clip0)">
<path d="M74.0074 56.5383L56.2886 45.6161C55.0067 44.8269 53.4568 44.7941 52.1426 45.5283C50.8284 46.2624 50.0438 47.5996 50.0438 49.1049V70.8498C50.0438 73.126 51.8778 74.9877 54.1319 75C54.1381 75 54.1442 75 54.1503 75C54.8547 75 55.5887 74.7792 56.2743 74.3608C56.8259 74.0243 57.0002 73.3044 56.6637 72.7529C56.3272 72.2013 55.6072 72.0271 55.0558 72.3636C54.7351 72.5592 54.422 72.6604 54.1445 72.6603C53.294 72.6557 52.3834 71.9271 52.3834 70.8499V49.105C52.3834 48.4592 52.72 47.8858 53.2837 47.5708C53.8474 47.2559 54.5121 47.2699 55.0613 47.6081L72.7802 58.5303C73.3127 58.8582 73.6175 59.4049 73.6162 60.0303C73.6149 60.6557 73.3079 61.2012 72.7724 61.528L59.9617 69.3718C59.4106 69.7092 59.2374 70.4294 59.5748 70.9804C59.9121 71.5314 60.6323 71.7046 61.1833 71.3672L73.9926 63.5243C75.219 62.7761 75.953 61.4718 75.9559 60.035C75.9588 58.5984 75.2302 57.2911 74.0074 56.5383Z"/>
</g>
<defs>
<clipPath id="clip0">
<rect width="30" height="30" transform="translate(48 45)"/>
</clipPath>
</defs>
</svg>
