<svg width="40" height="40" viewBox="0 0 40 40" fill="none" xmlns="http://www.w3.org/2000/svg">
<circle cx="20" cy="20" r="20" fill="#44678D"/>
<g clip-path="url(clip0)">
<path d="M26.5958 20.8568C26.2725 20.4485 26.365 20.2668 26.5958 19.9018C26.6 19.8977 29.2692 16.2093 29.5442 14.9585L29.5458 14.9577C29.6825 14.5018 29.5458 14.1668 28.885 14.1668H26.6983C26.1417 14.1668 25.885 14.4543 25.7475 14.776C25.7475 14.776 24.6342 17.441 23.0592 19.1685C22.5508 19.6677 22.3158 19.8277 22.0383 19.8277C21.9017 19.8277 21.6892 19.6677 21.6892 19.2118V14.9577C21.6892 14.411 21.5333 14.1668 21.0725 14.1668H17.6342C17.285 14.1668 17.0775 14.4218 17.0775 14.6593C17.0775 15.1777 17.865 15.2968 17.9467 16.7552V19.9193C17.9467 20.6127 17.8208 20.7402 17.5417 20.7402C16.7983 20.7402 14.9942 18.0643 13.925 15.0018C13.7092 14.4077 13.4983 14.1677 12.9375 14.1677H10.75C10.1258 14.1677 10 14.4552 10 14.7768C10 15.3452 10.7433 18.171 13.4567 21.9043C15.265 24.4527 17.8117 25.8335 20.1283 25.8335C21.5208 25.8335 21.6908 25.5268 21.6908 24.9993C21.6908 22.5643 21.565 22.3343 22.2625 22.3343C22.5858 22.3343 23.1425 22.4943 24.4425 23.7235C25.9283 25.181 26.1725 25.8335 27.0042 25.8335H29.1908C29.8142 25.8335 30.13 25.5268 29.9483 24.9218C29.5325 23.6493 26.7225 21.0318 26.5958 20.8568Z" fill="white"/>
</g>
<defs>
<clipPath id="clip0">
<rect width="20" height="20" fill="white" transform="translate(10 10)"/>
</clipPath>
</defs>
</svg>
