<svg width="40" height="40" viewBox="0 0 40 40" fill="none" xmlns="http://www.w3.org/2000/svg">
<circle cx="20" cy="20" r="20" fill="#FF0000"/>
<path d="M28.9789 15.3136C28.7628 14.5103 28.1295 13.8771 27.3264 13.6608C25.8591 13.2593 19.99 13.2593 19.99 13.2593C19.99 13.2593 14.1211 13.2593 12.6539 13.6456C11.8662 13.8616 11.2174 14.5104 11.0014 15.3136C10.6152 16.7807 10.6152 19.8233 10.6152 19.8233C10.6152 19.8233 10.6152 22.8813 11.0014 24.3331C11.2177 25.1362 11.8507 25.7694 12.654 25.9857C14.1366 26.3873 19.9902 26.3873 19.9902 26.3873C19.9902 26.3873 25.8591 26.3873 27.3264 26.0011C28.1296 25.7849 28.7628 25.1517 28.9791 24.3486C29.3651 22.8813 29.3651 19.8388 29.3651 19.8388C29.3651 19.8388 29.3806 16.7807 28.9789 15.3136ZM18.1214 22.6342V17.0124L23.0019 19.8233L18.1214 22.6342Z" fill="white"/>
</svg>
