<svg width="80" height="80" viewBox="0 0 80 80" fill="none" xmlns="http://www.w3.org/2000/svg">
<g clip-path="url(clip0)">
<path d="M79.7458 45.2766C79.3425 44.7682 78.6042 44.6832 78.0958 45.086L75.7925 46.9125L57.1765 22.4704L67.8188 15.64C68.3646 15.2897 68.523 14.5634 68.1727 14.0177C67.8226 13.4719 67.0963 13.3135 66.5505 13.6638L54.8375 21.1817C54.2693 21.5464 54.1278 22.3434 54.5374 22.8812L56.6692 25.6801L55.1534 26.8404L49.1354 24.8522C49.0178 24.8137 48.8911 24.7929 48.767 24.7929H34.9902C34.4514 24.7929 33.9818 25.1597 33.8511 25.6823L33.0758 28.7832L31.119 27.9593C30.9321 27.8806 30.7277 27.8518 30.5269 27.8753L25.0835 28.5128L23.234 27.439L24.9932 24.3922C25.3129 23.8381 25.1169 23.1078 24.5635 22.7883L1.76141 9.62316C1.19938 9.29878 0.481416 9.49128 0.157511 10.0528C-0.166707 10.6144 0.0256363 11.3325 0.587197 11.6567L18.4573 21.974L3.03453 48.6872L1.76141 47.9522C1.19938 47.6277 0.481416 47.8204 0.157511 48.3819C-0.166707 48.9435 0.0256363 49.6616 0.587197 49.9858L6.79202 53.5683C7.34655 53.8883 8.07654 53.692 8.39592 53.1386L9.29373 51.5836L11.8267 52.9345C11.0004 54.5363 11.0818 56.5356 12.2086 58.0928C13.1718 59.4239 14.6809 60.1316 16.2106 60.1316C16.721 60.1316 17.2337 60.0517 17.7293 59.8908C17.7324 60.9392 18.0657 61.947 18.6995 62.7887C19.6618 64.067 21.149 64.7443 22.652 64.7443C23.1541 64.7443 23.6582 64.6686 24.1449 64.5144C24.158 65.4943 24.4607 66.4797 25.0776 67.3322C25.8498 68.3993 26.9913 69.102 28.2918 69.3106C28.5561 69.3531 28.8207 69.374 29.0833 69.374C29.5932 69.374 30.0958 69.2945 30.5768 69.1401C30.5907 70.1456 30.9105 71.1207 31.5122 71.9521C32.2844 73.0192 33.426 73.722 34.7264 73.9306C34.9908 73.9729 35.2553 73.994 35.518 73.9938C36.5475 73.9938 37.5481 73.6718 38.3983 73.0565L41.1377 71.0743C41.7303 70.6456 42.2086 70.1039 42.5537 69.4853L47.3729 72.112C48.1073 72.5123 48.9126 72.7157 49.7264 72.7157C50.194 72.7157 50.6648 72.6484 51.1259 72.5126C52.3895 72.1404 53.4326 71.2987 54.0629 70.142C54.5543 69.2404 54.7479 68.2317 54.6335 67.2323C54.9284 67.2865 55.2251 67.3134 55.5206 67.3134C57.2687 67.3132 58.9651 66.3828 59.859 64.7428C60.362 63.8198 60.5371 62.8055 60.4265 61.8328C60.7221 61.8873 61.0198 61.9142 61.3162 61.9142C63.0644 61.914 64.7608 60.9836 65.6546 59.3436C66.1457 58.4427 66.3393 57.4345 66.2254 56.4358C66.5183 56.4902 66.8152 56.5181 67.1137 56.5181C67.5815 56.5181 68.0521 56.4508 68.5132 56.315C69.7768 55.9428 70.8199 55.1011 71.4504 53.9444C72.0808 52.7878 72.2233 51.455 71.8511 50.1913C71.7618 49.8875 71.6444 49.5971 71.503 49.3214L73.5625 47.8596L74.6505 49.288C75.043 49.8033 75.8058 49.8996 76.3142 49.4966L79.5555 46.9261C80.0634 46.5232 80.1488 45.7847 79.7458 45.2766ZM6.94952 50.9477L5.06827 49.8614L20.491 23.1483L22.3723 24.2345L6.94952 50.9477ZM17.7179 57.2945C16.5643 58.1297 14.946 57.8703 14.111 56.7163C13.2762 55.5624 13.5357 53.9441 14.6896 53.1091L22.9957 47.0993C23.4571 46.7655 23.9879 46.604 24.5132 46.604C25.2865 46.604 26.048 46.9538 26.5587 47.6186C27.434 48.7586 27.1874 50.4424 26.0248 51.2844L17.7179 57.2945ZM24.1524 61.9145C23.0202 62.7337 21.4154 62.4923 20.5754 61.3764C19.7051 60.2206 20.0402 58.513 21.1923 57.6794L27.4007 53.1874C27.6266 53.0367 27.8355 52.8781 28.0887 52.7708C28.4488 52.6178 28.8432 52.5485 29.234 52.5702C29.9818 52.6117 30.6819 52.9878 31.1375 53.581C32.0129 54.7208 31.7665 56.4047 30.6036 57.2467L24.1524 61.9145ZM30.5869 66.5342C30.028 66.9389 29.3451 67.1015 28.6636 66.992C27.9824 66.8828 27.3844 66.5147 26.9799 65.9556C26.1454 64.8022 26.4043 63.1851 27.5568 62.3498C27.5568 62.3498 31.9805 59.1489 31.981 59.1486L32.1535 59.0237C33.2939 58.1987 34.8589 58.4269 35.7164 59.5431C36.5919 60.6834 36.345 62.3676 35.1818 63.2094L30.5869 66.5342ZM40.8027 67.4517C40.7013 68.1484 40.3311 68.7592 39.7608 69.1718L37.0214 71.154C35.8802 71.9799 34.2391 71.7156 33.4144 70.5756C32.586 69.4307 32.856 67.7976 33.9928 66.9686L36.5585 65.1123L36.7324 64.9864C37.8564 64.1733 39.451 64.4064 40.2952 65.5058C40.7241 66.064 40.9042 66.7551 40.8027 67.4517ZM69.3883 52.8203C68.7151 54.0556 67.1213 54.5267 65.8838 53.8522L52.3087 46.4529C51.739 46.1427 51.0261 46.3525 50.7157 46.9219C50.4054 47.4913 50.6153 48.2044 51.1847 48.5149L62.5605 54.7153C63.8113 55.397 64.274 56.9691 63.5926 58.2197C62.9109 59.4701 61.3388 59.9334 60.0881 59.2516L48.5456 52.9602C47.9762 52.6499 47.2631 52.8599 46.9528 53.4292C46.6425 53.9986 46.8523 54.7117 47.4219 55.0222L56.7667 60.1158C58.0159 60.7981 58.4779 62.369 57.7968 63.619C57.1237 64.8542 55.5299 65.3256 54.2923 64.6509L44.5089 59.3183C43.9391 59.0081 43.2262 59.218 42.9159 59.7873C42.6056 60.3567 42.8155 61.0698 43.3848 61.3803L50.9689 65.514C52.2043 66.1873 52.6753 67.7811 52.0007 69.0186C51.3276 70.254 49.7339 70.7246 48.4965 70.0503L43.1769 67.1507C43.1956 66.0429 42.8445 64.97 42.1577 64.0756C41.2352 62.8744 39.8838 62.2119 38.49 62.1442C38.5121 62.04 38.5322 61.9348 38.5477 61.8284C38.7414 60.4986 38.3975 59.1792 37.5789 58.1133C36.6563 56.9122 35.3049 56.2497 33.9111 56.182C33.9332 56.0778 33.9533 55.9727 33.9688 55.8661C34.1625 54.5361 33.8186 53.2169 33 52.151C32.0774 50.9497 30.726 50.2874 29.3322 50.2197C29.3543 50.1155 29.3744 50.0103 29.3899 49.9039C29.5836 48.5739 29.2397 47.2546 28.4212 46.1888C26.7843 44.0572 23.796 43.6219 21.6191 45.1974L13.425 51.1255L10.4684 49.5486L22.0596 29.4723L24.2421 30.7395C24.4616 30.867 24.7168 30.9195 24.9682 30.8903L30.4925 30.2432L32.4993 31.0882L31.346 35.7017C31.3229 35.7948 31.311 35.8904 31.311 35.9865V46.006C31.311 49.4158 34.0852 52.1899 37.4949 52.1899C40.9047 52.1899 43.6787 49.4157 43.6787 46.006V36.3232L43.8922 35.9818L68.3561 49.316C69.5915 49.9893 70.0629 51.5825 69.3883 52.8203ZM69.9485 47.5447C69.7986 47.4404 69.643 47.3425 69.4804 47.2539L45.1394 33.9865L46.0425 32.5417C46.3861 31.9917 46.2189 31.2673 45.6689 30.9237C45.1195 30.5803 44.3945 30.7471 44.0509 31.2971L41.5091 35.3642C41.3927 35.5507 41.3306 35.7663 41.3306 35.9865V46.006C41.3306 48.1208 39.6102 49.8416 37.495 49.8416C35.3799 49.8416 33.6594 48.121 33.6594 46.006V36.131L35.9067 27.1412H48.5779L55.0059 29.2648C55.3712 29.3856 55.7824 29.316 56.0878 29.0823L58.0918 27.5482L72.1383 45.9905L69.9485 47.5447Z" fill="#A1BA45"/>
<path d="M79.814 6.54621C79.4638 6.00043 78.7376 5.84199 78.1918 6.1923L71.6133 10.4145C71.0676 10.7648 70.9091 11.491 71.2594 12.0368C71.4837 12.3863 71.8619 12.577 72.2485 12.577C72.4657 12.577 72.6852 12.5168 72.8816 12.3909L79.4601 8.1687C80.0057 7.81808 80.1641 7.09183 79.814 6.54621Z" fill="#A1BA45"/>
</g>
<defs>
<clipPath id="clip0">
<rect width="80" height="80" fill="white"/>
</clipPath>
</defs>
</svg>
