<svg width="80" height="80" viewBox="0 0 80 80" fill="none" xmlns="http://www.w3.org/2000/svg">
<g clip-path="url(clip0)">
<path d="M66.0597 25.2832H60.2425V19.0856C60.2425 15.534 58.9062 12.1507 56.4798 9.55933C56.0288 9.07745 55.2725 9.05276 54.7909 9.50386C54.3092 9.95495 54.2844 10.711 54.7355 11.1926C56.7456 13.3396 57.8528 16.1428 57.8528 19.0856V25.2832H33.5384C25.8517 25.2832 19.5981 31.537 19.5981 39.2237V43.4984H17.7266C16.982 43.4984 16.2819 43.7884 15.7552 44.315L9.41328 50.6568V44.2771C9.41328 43.2998 8.89 42.3814 8.04734 41.8804C4.55766 39.8056 2.38969 35.9996 2.38969 31.9479V19.0856C2.38969 12.7165 7.57125 7.53495 13.9403 7.53495H46.3022C47.795 7.53495 49.247 7.81511 50.618 8.36792C51.23 8.61433 51.9263 8.31839 52.173 7.70651C52.4197 7.09448 52.1236 6.39823 51.5116 6.15151C49.8555 5.4837 48.1027 5.14526 46.3022 5.14526H13.9403C6.25359 5.14526 0 11.3989 0 19.0856V31.9479C0 36.8382 2.61562 41.4312 6.82609 43.9345C6.94797 44.007 7.02359 44.1382 7.02359 44.2773V51.2339C7.02359 52.1068 7.54469 52.8867 8.35125 53.2209C8.88953 53.4796 9.98859 53.4423 10.6952 52.7548L17.4448 46.005C17.5202 45.9296 17.6202 45.8882 17.7266 45.8882H19.5981V52.0859C19.5981 53.9675 19.9669 55.7932 20.6941 57.5126C20.9511 58.1203 21.6522 58.4042 22.26 58.1476C22.8678 57.8906 23.152 57.1895 22.8952 56.5817C22.2933 55.1585 21.988 53.646 21.988 52.086V39.2239C21.988 32.8546 27.1695 27.6731 33.5386 27.6731H66.0597C72.4287 27.6731 77.6103 32.8546 77.6103 39.2239V52.086C77.6103 56.1535 75.5305 59.8454 72.0466 61.962C71.2255 62.4609 70.7153 63.3714 70.7153 64.3379V72.1311L63.0375 64.4531C62.5109 63.9265 61.8108 63.6365 61.0661 63.6365H33.5384C30.6398 63.6365 27.8681 62.5584 25.7336 60.6009C25.2473 60.1551 24.4916 60.1876 24.0453 60.6739C23.5992 61.1603 23.6319 61.916 24.1183 62.3621C26.6947 64.7251 30.04 66.0264 33.5383 66.0264H61.0658C61.1706 66.0264 61.2733 66.0689 61.3473 66.1431L69.4331 74.2289C70.0575 74.7087 70.6678 75.0796 71.7769 74.695C72.5834 74.3607 73.1045 73.5809 73.1045 72.7079V64.3378C73.1045 64.2004 73.1745 64.0725 73.287 64.0042C77.4906 61.4506 80 56.9953 80 52.0859V39.2237C80 31.537 73.7464 25.2832 66.0597 25.2832Z" fill="#A1BA45"/>
<path d="M46.4266 53.7791C45.726 52.7891 44.4496 52.1253 42.9938 52.1253C40.7865 52.1253 38.9909 53.6511 38.9909 55.5266C38.9909 57.4019 40.7866 58.9277 42.9938 58.9277C44.9307 58.9277 46.5502 57.7528 46.9182 56.1978C48.6807 55.4555 50.0682 53.9763 50.6704 52.1049C52.4154 51.7075 53.7221 50.1444 53.7221 48.2806V43.972C53.7221 42.1728 52.5043 40.6538 50.8499 40.1931C50.4605 37.7933 49.2812 35.5913 47.4732 33.927C45.4559 32.07 42.834 31.0474 40.0905 31.0474C34.692 31.0474 30.1765 34.936 29.3301 40.1933C27.6763 40.6542 26.459 42.1731 26.459 43.9719V48.2805C26.459 50.4436 28.2188 52.2035 30.382 52.2035C32.5451 52.2035 34.3049 50.4436 34.3049 48.2805V43.9719C34.3049 42.2852 33.2348 40.8438 31.7379 40.2906C32.5126 36.332 35.973 33.437 40.0905 33.437C44.1559 33.437 47.6599 36.3827 48.4401 40.2919C46.9448 40.8458 45.8762 42.2863 45.8762 43.9719V48.2805C45.8762 49.8749 46.8327 51.2492 48.2018 51.8622C47.822 52.6785 47.1971 53.3452 46.4266 53.7791ZM42.9938 56.5381C42.043 56.5381 41.3805 56.0052 41.3805 55.5267C41.3805 55.0483 42.043 54.5152 42.9938 54.5152C43.9446 54.5152 44.6073 55.0483 44.6073 55.5267C44.6073 56.0052 43.9445 56.5381 42.9938 56.5381ZM31.9152 48.2808C31.9152 49.1263 31.2274 49.8141 30.382 49.8141C29.5365 49.8141 28.8487 49.1263 28.8487 48.2808V43.9722C28.8487 43.1267 29.5365 42.4389 30.382 42.4389C31.2274 42.4389 31.9152 43.1267 31.9152 43.9722V48.2808ZM48.2659 43.9722C48.2659 43.1267 48.9537 42.4389 49.7991 42.4389C50.6446 42.4389 51.3324 43.1267 51.3324 43.9722V48.2808C51.3324 49.1263 50.6446 49.8141 49.7991 49.8141C48.9537 49.8141 48.2659 49.1263 48.2659 48.2808V43.9722Z" fill="#A1BA45"/>
<path d="M56.8267 37.8191H66.344C67.0039 37.8191 67.5389 37.2843 67.5389 36.6243C67.5389 35.9643 67.0039 35.4294 66.344 35.4294H56.8267C56.1668 35.4294 55.6318 35.9643 55.6318 36.6243C55.6318 37.2843 56.1668 37.8191 56.8267 37.8191Z" fill="#A1BA45"/>
<path d="M56.8267 43.168H64.1653C64.8251 43.168 65.3601 42.6332 65.3601 41.9732C65.3601 41.3132 64.8251 40.7783 64.1653 40.7783H56.8267C56.1668 40.7783 55.6318 41.3132 55.6318 41.9732C55.6318 42.6332 56.1668 43.168 56.8267 43.168Z" fill="#A1BA45"/>
<path d="M11.755 22.5552C12.7389 22.5552 13.5364 21.7577 13.5364 20.7738C13.5364 19.79 12.7389 18.9924 11.755 18.9924C10.7712 18.9924 9.97363 19.79 9.97363 20.7738C9.97363 21.7577 10.7712 22.5552 11.755 22.5552Z" fill="#A1BA45"/>
<path d="M17.1505 22.5552C18.1344 22.5552 18.932 21.7577 18.932 20.7738C18.932 19.79 18.1344 18.9924 17.1505 18.9924C16.1667 18.9924 15.3691 19.79 15.3691 20.7738C15.3691 21.7577 16.1667 22.5552 17.1505 22.5552Z" fill="#A1BA45"/>
<path d="M22.5138 22.5552C23.4977 22.5552 24.2952 21.7577 24.2952 20.7738C24.2952 19.79 23.4977 18.9924 22.5138 18.9924C21.53 18.9924 20.7324 19.79 20.7324 20.7738C20.7324 21.7577 21.53 22.5552 22.5138 22.5552Z" fill="#A1BA45"/>
</g>
<defs>
<clipPath id="clip0">
<rect width="80" height="80" fill="white"/>
</clipPath>
</defs>
</svg>
