<svg width="80" height="80" viewBox="0 0 80 80" fill="none" xmlns="http://www.w3.org/2000/svg">
<g clip-path="url(clip0)">
<path d="M34.5772 54.2372C39.4448 54.2372 43.3908 50.2913 43.3908 45.4237C43.3908 40.5561 39.4448 36.6101 34.5772 36.6101C29.7096 36.6101 25.7637 40.5561 25.7637 45.4237C25.7711 50.2882 29.7127 54.2298 34.5772 54.2372ZM34.5772 39.322C37.9471 39.322 40.6789 42.0538 40.6789 45.4237C40.6789 48.7935 37.9471 51.5254 34.5772 51.5254C31.2074 51.5254 28.4755 48.7935 28.4755 45.4237C28.483 42.0569 31.2105 39.3294 34.5772 39.322Z" fill="#A1BA45"/>
<path d="M3.33614 37.5865C1.37916 37.9444 -0.0318975 39.6652 0.000548248 41.6543V49.3289C-0.0318975 51.3181 1.37916 53.0389 3.33614 53.3967L11.2683 54.834C11.3497 55.0509 11.4446 55.2679 11.5395 55.4713L6.94292 61.9662C5.82478 63.5843 6.02458 65.7707 7.4175 67.1594L12.8412 72.5831C14.2334 73.9718 16.4195 74.1658 18.0344 73.0442L24.665 68.4475L25.3022 68.7187L26.7395 76.6509C27.0974 78.6079 28.8182 80.019 30.8073 79.9865H38.4819C40.4711 80.019 42.1919 78.6079 42.5497 76.6509L43.987 68.7187L44.6243 68.4475L51.2548 73.0442C52.8729 74.1623 55.0593 73.9625 56.448 72.5696L60.8141 68.217C61.3608 67.7003 61.3851 66.8383 60.8683 66.2916C60.3516 65.7449 59.4896 65.7207 58.9429 66.2374L54.5226 70.6577C54.0622 71.1186 53.3391 71.1869 52.8005 70.8204L47.3768 67.0509C50.519 65.1983 53.2136 62.675 55.2683 59.6611C55.6877 59.0396 55.5238 58.1957 54.9022 57.7764C54.2807 57.357 53.4369 57.5209 53.0175 58.1425C46.5802 67.5206 34.1307 70.5758 24.0833 65.2431C14.0359 59.9104 9.58909 47.8875 13.7484 37.3003C17.9078 26.7131 29.3491 20.9321 40.3395 23.8645C40.8094 23.9856 41.3082 23.8468 41.6481 23.5004C41.9879 23.154 42.1171 22.6527 41.987 22.1852C41.857 21.7177 41.4874 21.3551 41.0175 21.234C36.8243 20.1495 32.4242 20.1495 28.2311 21.234L29.3972 14.7391C29.5164 14.0867 30.09 13.6164 30.7531 13.6272H35.2548C36.0036 13.6272 36.6107 13.0201 36.6107 12.2713C36.6107 11.5224 36.0036 10.9153 35.2548 10.9153H30.7395C28.7504 10.8829 27.0296 12.2939 26.6717 14.2509L25.2344 22.1831L24.5972 22.4543L18.0344 17.7899C16.4163 16.6718 14.2299 16.8716 12.8412 18.2645L7.4175 23.6882C6.02887 25.0804 5.8348 27.2665 6.95648 28.8814L11.5531 35.512C11.4582 35.7153 11.3633 35.9323 11.2819 36.1492L3.33614 37.5865ZM2.71241 49.2611V41.5865C2.7016 40.9235 3.17195 40.3499 3.82428 40.2306L10.3056 39.0645C9.22077 43.2254 9.22077 47.5951 10.3056 51.756L3.82428 50.5899C3.18209 50.4724 2.71481 49.914 2.71241 49.2611ZM40.9226 69.695L39.7565 76.1764C39.6372 76.8287 39.0636 77.299 38.4005 77.2882H30.7395C30.0765 77.299 29.5029 76.8287 29.3836 76.1764L28.2175 69.695C32.3819 70.7889 36.7582 70.7889 40.9226 69.695ZM21.9395 67.0781L16.5158 70.834C15.9804 71.204 15.2576 71.1414 14.7938 70.6848L9.37004 65.2611C8.90919 64.8007 8.84087 64.0776 9.20733 63.5391L12.9633 58.1153C15.1358 61.8198 18.2215 64.9055 21.926 67.0781H21.9395ZM9.3158 25.6136L14.7395 20.1899C15.1999 19.7291 15.923 19.6607 16.4616 20.0272L21.8853 23.7831C18.1609 25.9614 15.0602 29.0621 12.8819 32.7865L9.12597 27.3628C8.75104 26.8123 8.83149 26.0709 9.3158 25.6136Z" fill="#A1BA45"/>
<path d="M77.2886 0H42.0343C40.5366 0 39.3225 1.21414 39.3225 2.71186V14.9153C39.3101 15.8796 39.8318 16.7718 40.6784 17.2339C41.2253 17.5588 41.8631 17.6968 42.4954 17.6271C46.3869 27.3763 45.492 25.1119 46.875 28.5559C45.6383 28.8282 44.7546 29.9201 44.7462 31.1864V35.2542C44.7462 36.752 45.9604 37.9661 47.4581 37.9661H48.814V42.0339C48.814 43.5316 50.0282 44.7458 51.5259 44.7458H52.8818V52.8814C52.8818 53.3081 53.0827 53.71 53.4242 53.9661L58.3055 57.6271V62.3729C58.3055 63.1217 58.9126 63.7288 59.6615 63.7288C60.4103 63.7288 61.0174 63.1217 61.0174 62.3729V57.6271L65.8988 53.9661C66.2402 53.71 66.4411 53.3081 66.4411 52.8814V44.7458H67.7971C69.2948 44.7458 70.5089 43.5316 70.5089 42.0339V37.9661H71.8649C73.3626 37.9661 74.5767 36.752 74.5767 35.2542V31.1864C74.5712 29.9282 73.701 28.839 72.475 28.5559L76.8547 17.6271H77.2886C78.7863 17.6271 80.0005 16.413 80.0005 14.9153V2.71186C80.0005 1.21414 78.7863 0 77.2886 0V0ZM63.7293 52.2034L59.6615 55.2542L55.5937 52.2034V44.7458H63.7293V52.2034ZM71.8649 35.2542H59.6615C58.9126 35.2542 58.3055 35.8613 58.3055 36.6102C58.3055 37.359 58.9126 37.9661 59.6615 37.9661H67.7971V42.0339H51.5259V37.9661H54.2377C54.9866 37.9661 55.5937 37.359 55.5937 36.6102C55.5937 35.8613 54.9866 35.2542 54.2377 35.2542H47.4581V31.1864H71.8649V35.2542ZM69.5869 28.4746H49.736L45.3971 17.6271H73.8716L69.5869 28.4746ZM77.2886 14.9153H42.0343V2.71186H77.2886V14.9153Z" fill="#A1BA45"/>
<path d="M46.103 8.13545H48.8149C49.5637 8.13545 50.1708 7.52838 50.1708 6.77952C50.1708 6.03066 49.5637 5.42358 48.8149 5.42358H46.103C45.3541 5.42358 44.7471 6.03066 44.7471 6.77952C44.7471 7.52838 45.3541 8.13545 46.103 8.13545Z" fill="#A1BA45"/>
<path d="M54.2378 8.13545H73.2208C73.9697 8.13545 74.5767 7.52838 74.5767 6.77952C74.5767 6.03066 73.9697 5.42358 73.2208 5.42358H54.2378C53.4889 5.42358 52.8818 6.03066 52.8818 6.77952C52.8818 7.52838 53.4889 8.13545 54.2378 8.13545Z" fill="#A1BA45"/>
<path d="M26.9708 30.5763C26.6324 29.9115 25.8205 29.6449 25.1538 29.9797C19.4318 32.8407 16.2725 38.5628 16.2725 46.1018C16.2725 46.8506 16.8795 47.4577 17.6284 47.4577C18.3773 47.4577 18.9843 46.8506 18.9843 46.1018C18.9843 39.6475 21.6013 34.7797 26.3742 32.3933C27.039 32.0549 27.3056 31.243 26.9708 30.5763Z" fill="#A1BA45"/>
<path d="M29.8305 29.8305C30.5794 29.8305 31.1865 29.2234 31.1865 28.4746C31.1865 27.7257 30.5794 27.1187 29.8305 27.1187C29.0817 27.1187 28.4746 27.7257 28.4746 28.4746C28.4746 29.2234 29.0817 29.8305 29.8305 29.8305Z" fill="#A1BA45"/>
</g>
<defs>
<clipPath id="clip0">
<rect width="80" height="80" fill="white"/>
</clipPath>
</defs>
</svg>
