<svg width="80" height="80" viewBox="0 0 80 80" fill="none" xmlns="http://www.w3.org/2000/svg">
<g clip-path="url(clip0)">
<path d="M17.2868 69.3245C16.6371 69.3245 16.1104 69.8512 16.1104 70.5009V70.8982C16.1104 71.5479 16.6371 72.0746 17.2868 72.0746C17.9365 72.0746 18.4632 71.5479 18.4632 70.8982V70.5009C18.4632 69.851 17.9366 69.3245 17.2868 69.3245Z" fill="#A1BA45"/>
<path d="M58.3727 69.3245C57.723 69.3245 57.1963 69.8512 57.1963 70.5009V70.8982C57.1963 71.5479 57.723 72.0746 58.3727 72.0746C59.0224 72.0746 59.5491 71.5479 59.5491 70.8982V70.5009C59.5491 69.851 59.0224 69.3245 58.3727 69.3245Z" fill="#A1BA45"/>
<path d="M78.061 67.2828V50.3736C78.061 49.7239 77.5342 49.1972 76.8845 49.1972C76.2348 49.1972 75.7081 49.7239 75.7081 50.3736V55.1041H72.8438C71.0465 55.1041 69.5843 56.5663 69.5843 58.3634V62.2495C69.5843 64.0467 71.0465 65.5089 72.8438 65.5089H75.7081V67.2572H65.1073C63.8431 64.8235 61.3 63.1561 58.3731 63.1561C55.4461 63.1561 52.903 64.8235 51.6388 67.2572H40.3369C39.6872 67.2572 39.1604 67.784 39.1604 68.4337C39.1604 69.0834 39.6872 69.6101 40.3369 69.6101H50.8727C50.8173 69.9792 50.788 70.3569 50.788 70.7412C50.788 71.2353 50.8371 71.7179 50.9277 72.1858H24.7325C24.8232 71.7177 24.8723 71.2351 24.8723 70.7412C24.8723 70.3569 24.843 69.9792 24.7876 69.6101H35.3234C35.9731 69.6101 36.4998 69.0834 36.4998 68.4337C36.4998 67.784 35.9731 67.2572 35.3234 67.2572H30.6582V34.5549C30.6582 33.4123 31.5876 32.483 32.7301 32.483H47.0123C47.662 32.483 48.1887 31.9562 48.1887 31.3065C48.1887 30.6568 47.662 30.1301 47.0123 30.1301H32.7301C30.2902 30.1301 28.3054 32.115 28.3054 34.5549V39.6985H15.6476C12.3014 39.6985 9.3864 41.963 8.55914 45.2051L6.57712 52.9708L4.53046 54.4467C2.37134 56.0035 1.08246 58.5218 1.08246 61.1836V67.5917C0.434647 67.9891 0 68.702 0 69.5164V72.2801C0 73.5257 1.01329 74.539 2.25888 74.539H10.7253C12.0396 76.8011 14.4878 78.3265 17.2872 78.3265C20.0865 78.3265 22.5347 76.8011 23.849 74.539H51.8113C53.1256 76.8011 55.5738 78.3265 58.3732 78.3265C61.1726 78.3265 63.6208 76.8011 64.9351 74.539H77.7413C78.9869 74.539 80.0002 73.5257 80.0002 72.2801V69.5164C80 68.3797 79.1552 67.439 78.061 67.2828ZM10.6475 46.5366H18.3592C18.617 46.5366 18.8266 46.7463 18.8266 47.004V52.0316C18.8266 52.2894 18.6169 52.499 18.3592 52.499H9.12586L10.6475 46.5366ZM3.4353 61.2622H5.44478V63.4083H3.4353V61.2622ZM2.35284 72.1861V69.6104H9.7867C9.73133 69.9795 9.70199 70.3572 9.70199 70.7415C9.70199 71.2356 9.75109 71.7182 9.84175 72.1861H2.35284ZM17.2871 75.9737C14.4019 75.9737 12.0548 73.6265 12.0548 70.7415C12.0548 67.8564 14.402 65.5092 17.2871 65.5092C20.1721 65.5092 22.5193 67.8564 22.5193 70.7415C22.5193 73.6265 20.1723 75.9737 17.2871 75.9737ZM17.2871 63.1562C14.3601 63.1562 11.817 64.8236 10.5528 67.2574H3.4353V65.7612H5.51771C6.77491 65.7612 7.79761 64.7383 7.79761 63.4811V61.1893C7.79761 59.9321 6.77475 58.9094 5.51771 58.9094H3.89143C4.30961 57.9003 4.99993 57.0089 5.90671 56.3551L7.99148 54.8518H18.3593C19.9146 54.8518 21.1796 53.5866 21.1796 52.0316V47.004C21.1796 45.4488 19.9144 44.1838 18.3593 44.1838H11.5712C12.4783 42.8772 13.984 42.0515 15.6476 42.0515H28.3054V67.2576H24.0214C22.7571 64.8236 20.214 63.1562 17.2871 63.1562ZM58.3732 75.9737C55.488 75.9737 53.141 73.6265 53.141 70.7415C53.141 67.8564 55.4882 65.5092 58.3732 65.5092C61.2583 65.5092 63.6054 67.8564 63.6054 70.7415C63.6054 73.6265 61.2583 75.9737 58.3732 75.9737ZM72.8438 63.1562C72.3439 63.1562 71.9372 62.7495 71.9372 62.2496V58.3635C71.9372 57.8636 72.3439 57.4571 72.8438 57.4571H75.7081V63.1562H72.8438ZM77.6472 72.1861H65.8185C65.9092 71.7181 65.9583 71.2354 65.9583 70.7415C65.9583 70.3572 65.929 69.9795 65.8736 69.6104H77.6472V72.1861Z" fill="#A1BA45"/>
<path d="M58.1777 31.3068C58.1777 31.9565 58.7045 32.4832 59.3542 32.4832H73.6363C74.7789 32.4832 75.7082 33.4126 75.7082 34.5551V45.3603C75.7082 46.01 76.235 46.5367 76.8847 46.5367C77.5344 46.5367 78.0611 46.01 78.0611 45.3603V34.5551C78.0611 32.1152 76.0761 30.1304 73.6363 30.1304H59.3542C58.7045 30.1304 58.1777 30.6569 58.1777 31.3068Z" fill="#A1BA45"/>
<path d="M53.1826 23.0888C57.5722 23.0888 61.1435 19.5175 61.1435 15.1279C61.1435 10.7383 57.5722 7.16699 53.1826 7.16699C48.793 7.16699 45.2217 10.7383 45.2217 15.1279C45.2217 19.5175 48.7928 23.0888 53.1826 23.0888ZM53.1826 9.51983C56.2748 9.51983 58.7906 12.0356 58.7906 15.1279C58.7906 18.2201 56.2748 20.7359 53.1826 20.7359C50.0903 20.7359 47.5745 18.2201 47.5745 15.1279C47.5745 12.0356 50.0902 9.51983 53.1826 9.51983Z" fill="#A1BA45"/>
<path d="M49.5073 28.069L51.4942 32.9626C51.7748 33.6535 52.4378 34.0999 53.1837 34.0999C53.9295 34.0999 54.5926 33.6535 54.8732 32.9626L56.8599 28.069C59.5271 27.3106 61.9306 25.7199 63.6787 23.544C65.5869 21.169 66.6377 18.1802 66.6377 15.1279C66.6377 11.4738 65.1977 8.05529 62.5829 5.50183C59.9691 2.94916 56.5144 1.58985 52.8576 1.67785C48.6292 1.77808 44.6363 3.92449 42.1768 7.41939C41.8029 7.95066 41.9305 8.68459 42.4618 9.05853C42.9931 9.43248 43.7268 9.30496 44.1009 8.77353C46.1332 5.88597 49.4275 4.11288 52.9134 4.03021C55.9321 3.95947 58.7825 5.07911 60.9393 7.18536C63.0966 9.29241 64.285 12.1131 64.285 15.1282C64.285 20.3103 60.7647 24.7537 55.7241 25.9337C55.3524 26.0208 55.046 26.2829 54.9023 26.6366L53.1835 30.8693L51.4649 26.6363C51.3212 26.2825 51.0148 26.0204 50.6431 25.9334C45.5624 24.7438 41.9633 20.0874 42.0854 14.8616C42.1001 14.2274 42.174 13.5788 42.3048 12.934C42.4339 12.2971 42.0225 11.6763 41.3856 11.5472C40.7478 11.4181 40.128 11.8295 39.9989 12.4664C39.8406 13.2469 39.7512 14.0343 39.7331 14.8067C39.6604 17.9231 40.6769 20.9846 42.5958 23.4275C44.3532 25.6648 46.7896 27.2968 49.5073 28.069Z" fill="#A1BA45"/>
</g>
<defs>
<clipPath id="clip0">
<rect width="80" height="80" fill="white"/>
</clipPath>
</defs>
</svg>
